<svg width="1990" height="1301" viewBox="0 0 1990 1301" fill="none" xmlns="http://www.w3.org/2000/svg">
<path d="M494.5 591.11C493.72 590.907 492.906 590.72 492.092 590.567L481.592 640.352L482.593 640.573L494.5 591.11Z" fill="#3AFB04"/>
<path d="M462.611 874.858C500.98 874.858 537.059 859.915 564.199 832.792C582.331 814.676 593.578 787.163 599.667 768.131H687.176V785.331C687.176 794.236 689.093 803.023 692.757 811.08C694.64 817.967 698.914 822.546 701.017 824.802C701.781 825.617 702.646 826.533 703.63 827.499C704.172 828.11 704.868 828.873 705.716 829.688C717.454 841.273 732.992 847.651 749.479 847.651L1594.67 840.374C1619.38 858.846 1649.52 868.922 1680.6 868.922C1711.67 868.922 1741.92 858.812 1766.65 840.289L1800.61 840.289C1811.43 840.289 1821.45 833.996 1826.17 824.243L1826.25 824.09C1830.92 814.286 1829.53 802.514 1822.72 794.067L1812.78 781.718C1815.46 775.442 1817.7 769.013 1819.45 762.432H1923.02C1938.68 762.432 1951.42 749.693 1951.42 734.02V685.745C1951.42 670.088 1938.68 657.35 1923.02 657.35H1920.36L1948.14 590.823L1948.84 589.839L1949.96 586.294C1950.18 585.649 1950.47 584.717 1950.72 583.563L1950.81 583.173L1950.89 582.783C1951.25 581.002 1951.42 579.17 1951.42 577.355V516.612C1951.42 500.956 1938.68 488.217 1923.02 488.217H1812.51C1807.61 479.685 1798.4 473.935 1787.88 473.935L1729.57 473.935C1709.31 473.935 1691.91 486.385 1684.62 504.026H1681.97C1666.31 504.026 1653.58 516.765 1653.58 532.421V584.157C1645.54 585.683 1637.66 587.888 1630 590.772L1611.88 540.19C1608.03 529.283 1597.96 521.854 1586.27 521.379H1585.98C1512.91 519.225 1329.97 471.289 1326.3 470.322C1323.94 469.677 1321.45 469.355 1318.92 469.355H1228.9C1229.41 462.689 1227.58 455.989 1223.63 450.51C1220.03 445.523 1214.94 441.91 1209.21 440.078C1204.16 432.224 1195.34 427 1185.31 427C1179.07 427 1173.3 429.019 1168.6 432.445C1163.92 429.019 1158.14 427 1151.91 427C1140.34 427 1130.35 433.955 1125.94 443.912C1120.79 447.541 1116.82 452.851 1114.97 459.161L1110.8 473.901C1103.59 478.583 1098.57 486.436 1097.85 495.511L1093.04 559.782L909.672 520.48C898.714 518.122 887.536 516.935 876.46 516.935C854.442 516.935 832.798 521.701 813.868 530.742C806.269 534.355 798.992 538.63 792.224 543.447C771.954 557.848 754.33 574.217 743.05 585.463C742.796 585.717 742.541 585.955 742.304 586.209C739.454 589.059 736.927 591.671 734.773 593.944L701.526 594.385C695.776 590.908 688.228 587.99 679.119 587.99H678.407C671.605 588.126 662.462 589.958 653.336 596.862L632.337 597.896L626.349 598.202L577.243 600.61C563.995 601.255 550.849 604.121 538.501 608.99C529.629 603.324 520.792 599.05 512.107 596.217C497.74 591.552 482.796 588.872 467.733 588.296C465.698 588.211 463.628 588.177 461.576 588.177C460.914 588.177 460.27 588.177 459.608 588.177C422.291 588.652 387.315 603.341 361.091 629.565C356.562 634.094 352.304 638.962 348.386 644.085C345.451 644.933 339.209 646.731 339.209 646.731C328.353 649.869 317.056 653.194 305.641 656.552C290.391 661.064 275.363 665.61 260.945 670.037C243.965 675.211 227.461 680.385 210.532 685.796C191.806 691.783 175.149 697.296 159.611 702.605C141.563 708.797 126.857 714.089 113.372 719.262C106.129 722.027 99.6152 724.639 93.4578 727.235L91.9651 727.845C86.9443 729.915 78.5138 733.375 71.0673 739.142C58.0402 749.201 51.9677 763.483 54.4103 778.308C54.7496 780.378 55.2755 782.43 55.9879 784.432L50.4412 788.554C40.5351 796 36.566 808.773 40.5012 820.426C44.3856 831.961 55.2076 839.729 67.4036 839.729C67.5054 839.729 342.737 837.931 342.737 837.931C349.149 837.931 355.273 835.709 360.192 831.808C360.48 832.113 360.785 832.419 361.091 832.707C388.214 859.847 424.293 874.774 462.679 874.774L462.611 874.858Z" fill="#3AFB04"/>
<path d="M1709.31 580.256H1923.02C1924.65 580.256 1925.98 578.933 1925.98 577.304V516.613C1925.98 514.984 1924.65 513.661 1923.02 513.661H1795.48C1792.9 513.661 1790.82 511.575 1790.82 508.997V502.33C1790.82 500.702 1789.5 499.379 1787.87 499.379L1729.57 499.379C1716.78 499.379 1706.38 509.777 1706.38 522.566V577.304C1706.38 578.933 1707.7 580.256 1709.33 580.256H1709.31ZM1920.07 574.353H1712.28V522.566C1712.28 513.034 1720.03 505.282 1729.57 505.282H1784.92V508.997C1784.92 514.832 1789.65 519.564 1795.48 519.564H1920.07V574.353Z" fill="#231F20"/>
<path d="M1767.12 650.633H1893.51C1895.14 650.633 1896.46 649.31 1896.46 647.682C1896.46 646.054 1895.14 644.73 1893.51 644.73H1767.12C1765.49 644.73 1764.17 646.054 1764.17 647.682C1764.17 649.31 1765.49 650.633 1767.12 650.633Z" fill="#231F20"/>
<path d="M1877.78 688.543C1878.94 688.543 1880.04 687.865 1880.52 686.728L1925.74 578.44C1926.36 576.93 1925.65 575.2 1924.14 574.573C1922.63 573.945 1920.9 574.658 1920.28 576.167L1875.05 684.455C1874.43 685.965 1875.14 687.695 1876.65 688.323C1877.02 688.475 1877.41 688.543 1877.78 688.543Z" fill="#231F20"/>
<path d="M1796.87 736.988H1923.02C1924.65 736.988 1925.98 735.664 1925.98 734.036V685.761C1925.98 684.133 1924.65 682.81 1923.02 682.81H1790.43C1788.8 682.81 1787.48 684.133 1787.48 685.761C1787.48 687.389 1788.8 688.712 1790.43 688.712H1920.07V731.085H1796.87C1795.25 731.085 1793.92 732.408 1793.92 734.036C1793.92 735.664 1795.25 736.988 1796.87 736.988Z" fill="#231F20"/>
<path d="M1681.95 611.196C1683.58 611.196 1684.91 609.873 1684.91 608.244V535.374H1709.33C1710.96 535.374 1712.28 534.051 1712.28 532.422C1712.28 530.794 1710.96 529.471 1709.33 529.471H1681.95C1680.33 529.471 1679 530.794 1679 532.422V608.244C1679 609.873 1680.33 611.196 1681.95 611.196Z" fill="#231F20"/>
<path d="M1681.95 557.476H1709.33C1710.96 557.476 1712.28 556.153 1712.28 554.525C1712.28 552.896 1710.96 551.573 1709.33 551.573H1681.95C1680.33 551.573 1679 552.896 1679 554.525C1679 556.153 1680.33 557.476 1681.95 557.476Z" fill="#231F20"/>
<path d="M1711.54 613.569C1712.79 613.569 1713.95 612.772 1714.35 611.5L1724.89 578.186C1725.38 576.625 1724.51 574.98 1722.97 574.488C1721.41 573.996 1719.76 574.861 1719.27 576.404L1708.74 609.719C1708.25 611.279 1709.11 612.925 1710.65 613.416C1710.94 613.518 1711.25 613.552 1711.55 613.552L1711.54 613.569Z" fill="#231F20"/>
<path d="M1758.1 814.846H1800.61C1801.74 814.846 1802.78 814.202 1803.27 813.167C1803.76 812.149 1803.62 810.928 1802.91 810.046L1781.83 783.873C1780.81 782.601 1778.94 782.397 1777.67 783.432C1776.4 784.45 1776.2 786.315 1777.23 787.588L1794.45 808.96H1758.1C1756.47 808.96 1755.15 810.283 1755.15 811.912C1755.15 813.54 1756.47 814.863 1758.1 814.863V814.846Z" fill="#231F20"/>
<path d="M1483.73 797.171C1484.31 797.171 1484.88 797.002 1485.39 796.663L1521.3 772.203C1532.9 764.298 1546.46 760.126 1560.5 760.126H1568.05C1569.68 760.126 1571 758.802 1571 757.174C1571 755.546 1569.68 754.223 1568.05 754.223H1560.5C1545.27 754.223 1530.56 758.752 1517.98 767.335L1482.07 791.794C1480.73 792.71 1480.37 794.542 1481.29 795.899C1481.86 796.73 1482.78 797.188 1483.73 797.188V797.171Z" fill="#231F20"/>
<path d="M1427.64 797.17C1428.09 797.17 1428.57 797.051 1429.01 796.831L1508.22 754.883C1523.59 746.741 1540.93 742.432 1558.31 742.432H1565.32C1566.95 742.432 1568.27 741.109 1568.27 739.481C1568.27 737.852 1566.95 736.529 1565.32 736.529H1558.31C1539.96 736.529 1521.68 741.075 1505.46 749.658L1426.25 791.606C1424.8 792.369 1424.26 794.151 1425.02 795.592C1425.55 796.593 1426.58 797.17 1427.64 797.17Z" fill="#231F20"/>
<path d="M1147.21 764.756C1152.06 764.756 1156.92 764.654 1161.77 764.433C1179.24 763.653 1196.83 761.431 1214.05 757.869C1226.17 755.358 1238.3 752.102 1250.09 748.183C1257.28 745.792 1264.46 742.976 1271.38 740.245C1275.89 738.464 1280.57 736.632 1285.19 734.936C1299.37 729.728 1311.97 725.488 1323.74 721.976C1347.91 714.75 1373.39 708.559 1399.44 703.572C1421.5 699.366 1444.24 695.956 1467.04 693.463C1485.29 691.461 1503.61 690.036 1521.52 689.222C1534.48 688.628 1546.37 688.374 1557.84 688.442C1562.05 688.459 1566.54 688.51 1571 688.713C1572.63 688.798 1574 687.526 1574.09 685.897C1574.17 684.269 1572.9 682.895 1571.27 682.81C1566.73 682.607 1562.15 682.556 1557.89 682.522C1546.31 682.454 1534.33 682.708 1521.27 683.302C1503.24 684.116 1484.8 685.558 1466.41 687.577C1443.45 690.087 1420.55 693.514 1398.34 697.771C1372.1 702.792 1346.44 709.034 1322.06 716.311C1310.17 719.856 1297.45 724.131 1283.17 729.389C1278.49 731.102 1273.79 732.951 1269.24 734.749C1262.39 737.446 1255.3 740.245 1248.24 742.586C1236.67 746.436 1224.77 749.642 1212.87 752.102C1195.96 755.596 1178.7 757.767 1161.53 758.547C1140.29 759.514 1119.14 758.327 1098.62 755.053C1074.51 751.203 1050.92 744.367 1028.49 734.749C1018.04 730.271 1007.66 725.098 997.639 719.398L869.335 636.079C867.961 635.197 866.146 635.587 865.247 636.944C864.365 638.318 864.755 640.133 866.112 641.032L994.501 724.402C994.501 724.402 994.603 724.47 994.654 724.487C1004.9 730.322 1015.5 735.597 1026.19 740.177C1049.05 749.981 1073.12 756.953 1097.7 760.888C1113.92 763.483 1130.52 764.789 1147.25 764.789L1147.21 764.756Z" fill="#231F20"/>
<path d="M1295.96 631.499H1295.99C1418.43 629.871 1512.24 623.442 1557.26 619.761C1578.36 618.031 1599.6 618.913 1620.38 622.374C1620.43 622.374 1620.48 622.374 1620.52 622.391L1630.68 623.578C1632.3 623.765 1633.76 622.611 1633.95 620.983C1634.14 619.371 1632.98 617.896 1631.35 617.709L1621.26 616.539C1600.03 613.01 1578.33 612.111 1556.77 613.876C1511.82 617.556 1418.19 623.968 1295.94 625.596C1292.58 625.546 1125.04 623.103 1006.29 611.077C1004.66 610.907 1003.22 612.094 1003.05 613.723C1002.88 615.351 1004.07 616.793 1005.7 616.963C1125.32 629.074 1294.21 631.483 1295.91 631.516H1295.94L1295.96 631.499Z" fill="#231F20"/>
<path d="M748.207 624.239C749.038 624.239 749.869 623.883 750.446 623.221C750.7 622.916 776.636 592.977 810.357 569.009C815.615 565.278 821.315 561.919 827.302 559.069C849.811 548.332 876.714 545.533 903.056 551.165L1095.66 592.434C1095.87 592.485 1096.07 592.502 1096.28 592.502H1119.23C1120.77 592.502 1122.06 591.315 1122.18 589.771L1128.86 500.702L1318.52 500.702C1327.91 503.161 1506.05 549.672 1583.01 552.658L1606.73 618.862C1607.27 620.389 1608.96 621.203 1610.51 620.643C1612.03 620.1 1612.85 618.404 1612.29 616.86L1587.9 548.773C1587.49 547.637 1586.42 546.856 1585.2 546.823C1508.39 544.567 1321.52 495.393 1319.64 494.901C1319.38 494.833 1319.14 494.799 1318.89 494.799L1126.11 494.799C1124.57 494.799 1123.28 495.986 1123.16 497.53L1116.48 586.599H1096.58L904.278 545.398C876.68 539.478 848.438 542.446 824.758 553.743C818.465 556.746 812.46 560.274 806.93 564.209C772.616 588.618 746.222 619.082 745.968 619.388C744.899 620.626 745.052 622.492 746.273 623.544C746.833 624.019 747.511 624.256 748.19 624.256L748.207 624.239Z" fill="#231F20"/>
<path d="M1600.98 596.913C1602.42 596.913 1603.67 595.862 1603.89 594.386C1604.13 592.774 1603.01 591.265 1601.4 591.027C1574.5 587.041 1499.68 586.6 1496.5 586.583C1494.88 586.583 1493.57 587.889 1493.55 589.518C1493.55 591.146 1494.86 592.469 1496.49 592.486C1497.27 592.486 1574.06 592.961 1600.55 596.879C1600.7 596.896 1600.84 596.913 1600.99 596.913H1600.98Z" fill="#231F20"/>
<path d="M1134.8 593.758H1152.23C1160.6 593.758 1168.6 590.212 1174.2 584.004C1179.82 577.813 1182.55 569.484 1181.72 561.173C1180.61 550.181 1171.47 541.513 1160.43 541.004L1137.51 539.953C1135.88 539.902 1134.51 541.123 1134.42 542.735L1131.85 590.636C1131.79 591.451 1132.1 592.231 1132.64 592.825C1133.2 593.418 1133.98 593.741 1134.78 593.741L1134.8 593.758ZM1140.17 545.991L1160.17 546.907C1168.3 547.281 1175.05 553.675 1175.85 561.766C1176.51 568.433 1174.32 575.082 1169.82 580.052C1165.33 585.022 1158.92 587.855 1152.23 587.855H1137.92L1140.17 545.991Z" fill="#231F20"/>
<path d="M1190.64 500.685C1191.88 500.685 1193.05 499.888 1193.44 498.649L1203.38 468.049C1203.66 467.15 1203.51 466.166 1202.95 465.403C1202.39 464.64 1201.51 464.182 1200.56 464.182H1142.16C1140.84 464.182 1139.68 465.064 1139.33 466.336L1130.66 496.936C1130.22 498.497 1131.13 500.142 1132.69 500.583C1134.27 501.024 1135.9 500.108 1136.34 498.548L1144.4 470.102H1196.51L1187.82 496.834C1187.31 498.378 1188.16 500.057 1189.72 500.549C1190.03 500.651 1190.33 500.702 1190.64 500.702V500.685Z" fill="#231F20"/>
<path d="M1137.85 485.385H1193.45C1195.08 485.385 1196.4 484.062 1196.4 482.434C1196.4 480.805 1195.08 479.482 1193.45 479.482H1137.85C1136.22 479.482 1134.9 480.805 1134.9 482.434C1134.9 484.062 1136.22 485.385 1137.85 485.385Z" fill="#231F20"/>
<path d="M1185.29 468.812C1186.92 468.812 1188.25 467.489 1188.25 465.86V455.412C1188.25 453.783 1186.92 452.46 1185.29 452.46C1183.67 452.46 1182.34 453.783 1182.34 455.412V465.86C1182.34 467.489 1183.67 468.812 1185.29 468.812Z" fill="#231F20"/>
<path d="M1151.88 470.084C1153.51 470.084 1154.83 468.761 1154.83 467.133V455.395C1154.83 453.766 1153.51 452.443 1151.88 452.443C1150.25 452.443 1148.93 453.766 1148.93 455.395V467.133C1148.93 468.761 1150.25 470.084 1151.88 470.084Z" fill="#231F20"/>
<path d="M810.17 623.595C810.289 623.595 810.391 623.595 810.51 623.578C812.121 623.391 813.292 621.933 813.105 620.321C813.105 620.203 812.749 617.2 811.646 613.672C810.103 608.651 807.864 605.055 805.014 602.969C803.691 602.019 801.859 602.307 800.892 603.613C799.925 604.936 800.231 606.785 801.537 607.735C805.251 610.432 806.897 618.218 807.219 620.983C807.389 622.493 808.678 623.595 810.154 623.595H810.17Z" fill="#231F20"/>
<path d="M830.831 622.577C832.459 622.577 833.782 621.254 833.782 619.625V602.103L879.903 600.746V619.625C879.903 621.254 881.226 622.577 882.855 622.577C884.483 622.577 885.806 621.254 885.806 619.625V597.71C885.806 596.913 885.484 596.149 884.907 595.59C884.33 595.03 883.55 594.742 882.77 594.759L830.746 596.285C829.152 596.336 827.879 597.642 827.879 599.237L827.879 619.625C827.879 621.254 829.203 622.577 830.831 622.577Z" fill="#231F20"/>
<path d="M537.585 643.746C538.076 643.746 538.568 643.627 539.026 643.373C551.138 636.588 564.877 632.636 578.752 631.957L665.498 627.683C666.363 627.632 667.16 627.225 667.686 626.529C671.282 621.865 675.031 619.456 678.881 619.371C684.869 619.235 689.551 624.765 689.602 624.833C690.178 625.511 691.027 625.901 691.909 625.901L933.979 622.628V633.67C933.979 635.299 935.302 636.622 936.931 636.622C938.559 636.622 939.882 635.299 939.882 633.67V619.642C939.882 618.845 939.56 618.099 939 617.539C938.44 616.996 937.694 616.691 936.931 616.691H936.897L693.147 619.982C691.027 617.844 685.717 613.349 678.831 613.468C673.437 613.553 668.416 616.369 663.887 621.848L578.481 626.054C563.707 626.784 549.068 630.99 536.16 638.216C534.735 639.013 534.226 640.811 535.023 642.236C535.566 643.203 536.567 643.746 537.602 643.746H537.585Z" fill="#231F20"/>
<path d="M578.634 742.687H715.571C717.2 742.687 718.523 741.364 718.523 739.736C718.523 738.107 717.2 736.784 715.571 736.784H578.634C577.005 736.784 575.682 738.107 575.682 739.736C575.682 741.364 577.005 742.687 578.634 742.687Z" fill="#231F20"/>
<path d="M569.202 689.901H843.332C844.96 689.901 846.283 688.578 846.283 686.95V638.505C846.283 636.877 844.96 635.554 843.332 635.554C841.703 635.554 840.38 636.877 840.38 638.505V683.998H569.202C567.574 683.998 566.251 685.322 566.251 686.95C566.251 688.578 567.574 689.901 569.202 689.901Z" fill="#231F20"/>
<path d="M749.479 822.207C749.581 822.207 749.699 822.207 749.801 822.207L1603.52 814.845C1605.15 814.845 1606.45 813.505 1606.45 811.877C1606.45 810.248 1605.11 808.942 1603.5 808.942H1603.47L749.75 816.304C749.665 816.304 749.564 816.304 749.479 816.304C741.252 816.304 733.534 813.115 727.682 807.331C721.779 801.479 718.522 793.659 718.522 785.331V686.949C718.522 685.32 717.199 683.997 715.571 683.997C713.942 683.997 712.619 685.32 712.619 686.949V785.331C712.619 795.237 716.487 804.549 723.526 811.521C730.481 818.424 739.692 822.207 749.479 822.207Z" fill="#231F20"/>
<path d="M986.139 800.189C986.139 800.189 986.24 800.189 986.291 800.189L1586.95 797.17C1588.58 797.17 1589.9 795.83 1589.88 794.201C1589.88 792.573 1588.56 791.267 1586.93 791.267L986.274 794.286C980.354 794.286 974.808 792.03 970.601 787.874C966.411 783.702 964.104 778.155 964.104 772.235V760.65C964.104 759.615 963.562 758.648 962.68 758.122L901.734 721.399C901.276 721.127 900.75 720.975 900.207 720.975H770.665C769.037 720.975 767.714 722.298 767.714 723.926C767.714 725.554 769.037 726.877 770.665 726.877H899.393L958.202 762.312V772.235C958.202 779.732 961.119 786.772 966.445 792.047C971.721 797.305 978.726 800.189 986.156 800.189H986.139Z" fill="#231F20"/>
<path d="M770.648 809.756C772.277 809.756 773.6 808.433 773.6 806.805V686.949C773.6 685.32 772.277 683.997 770.648 683.997C769.02 683.997 767.697 685.32 767.697 686.949L767.697 806.805C767.697 808.433 769.02 809.756 770.648 809.756Z" fill="#231F20"/>
<path d="M961.136 775.188C962.764 775.188 964.087 773.865 964.087 772.253C964.087 770.625 962.781 769.302 961.153 769.285L770.665 768.657C769.037 768.657 767.714 769.98 767.714 771.592C767.714 773.22 769.02 774.543 770.648 774.56L961.136 775.188Z" fill="#231F20"/>
<path d="M91.3208 796.493H124.465C126.094 796.493 127.417 795.169 127.417 793.541C127.417 791.913 126.094 790.59 124.465 790.59H94.3401C94.5267 782.397 94.5267 782.38 94.5267 782.363C94.5267 782.363 94.5267 782.329 94.5267 782.312C94.5267 781.209 93.865 780.175 92.8982 779.666C89.9637 778.139 88.0471 777.088 87.5721 776.799C86.266 775.68 85.5026 774.509 85.299 773.288C83.959 765.078 96.4435 759.939 103.907 756.868C104.501 756.631 105.06 756.393 105.569 756.173C111.286 753.781 117.494 751.288 124.55 748.574C137.747 743.502 152.114 738.328 169.738 732.29C185.089 727.031 201.543 721.587 220.049 715.667C235.908 710.578 252.277 705.472 270.088 700.01C284.438 695.617 299.382 691.122 314.478 686.644C325.826 683.285 337.072 679.995 347.86 676.857L347.979 676.823C353.509 675.228 359.242 673.566 364.873 671.988L365.247 671.887C365.467 671.819 365.688 671.751 365.908 671.7C367.486 671.31 368.453 669.699 368.046 668.121C367.638 666.544 366.044 665.577 364.466 665.984C364.178 666.052 363.89 666.136 363.601 666.221L363.262 666.323C357.614 667.917 351.88 669.58 346.334 671.174L346.215 671.208C335.393 674.329 324.147 677.637 312.782 680.996C297.668 685.474 282.708 689.986 268.34 694.379C250.513 699.841 234.11 704.963 218.233 710.052C199.694 715.989 183.189 721.451 167.821 726.709C150.129 732.782 135.694 737.972 122.43 743.061C115.306 745.792 109.046 748.302 103.279 750.728C102.77 750.948 102.228 751.169 101.651 751.407C93.1696 754.901 77.3777 761.414 79.4641 774.238C79.8881 776.884 81.4147 779.361 83.8743 781.396C84.1287 781.6 84.5189 781.939 88.5899 784.076C88.522 787.248 88.3693 793.456 88.3693 793.456C88.3524 794.254 88.6577 795.017 89.2175 795.594C89.7772 796.153 90.5405 796.476 91.3208 796.476V796.493Z" fill="#231F20"/>
<path d="M88.1831 765.044C88.1831 765.044 88.2169 765.044 88.2338 765.044L130.403 764.366C132.031 764.332 133.337 762.992 133.303 761.364C133.269 759.752 131.963 758.463 130.352 758.463C130.352 758.463 130.318 758.463 130.301 758.463L88.1322 759.141C86.5038 759.175 85.1977 760.515 85.2317 762.144C85.2656 763.755 86.5717 765.044 88.1831 765.044Z" fill="#231F20"/>
<path d="M67.3528 814.337H67.3698L127.264 813.947C127.264 813.947 127.315 813.947 127.332 813.947L342.517 812.556C343.603 812.556 344.586 811.962 345.095 811.012C345.604 810.063 345.553 808.909 344.977 808.01C326.08 778.818 327.828 725.844 327.845 725.318C327.879 724.47 327.539 723.673 326.946 723.079C326.335 722.503 325.521 722.197 324.673 722.265C319.38 722.655 194.825 732.086 152.097 743.757C151.028 743.96 144.922 745.317 138.697 749.744C132.454 754.171 124.889 762.602 124.33 777.63C124.33 777.664 124.33 777.698 124.33 777.749L124.33 808.095L76.343 808.4L93.0849 795.933C94.391 794.966 94.6624 793.117 93.6955 791.794C92.7287 790.488 90.8797 790.217 89.5566 791.183L65.5887 809.028C64.5709 809.791 64.1469 811.131 64.554 812.336C64.9611 813.54 66.0807 814.354 67.3528 814.354V814.337ZM337.327 806.687L130.215 808.027L130.215 777.783C131.165 753.849 152.385 749.693 153.284 749.524C153.369 749.524 153.454 749.49 153.539 749.473C191.857 738.99 301.587 730 321.874 728.406C321.772 740.127 322.586 779.785 337.327 806.704V806.687Z" fill="#231F20"/>
<path d="M327.2 754.68H347.334C348.963 754.68 350.286 753.357 350.286 751.729C350.286 750.1 348.963 748.777 347.334 748.777H327.2C325.572 748.777 324.249 750.1 324.249 751.729C324.249 753.357 325.572 754.68 327.2 754.68Z" fill="#231F20"/>
<path d="M127.281 796.492H362.906C364.535 796.492 365.858 795.169 365.858 793.54C365.858 791.912 364.535 790.589 362.906 790.589H127.281C125.653 790.589 124.33 791.912 124.33 793.54C124.33 795.169 125.653 796.492 127.281 796.492Z" fill="#231F20"/>
<path d="M547.016 653.94C547.558 653.94 548.101 653.788 548.593 653.482C548.712 653.415 560.959 646.036 596.478 646.036C596.495 646.036 596.512 646.036 596.529 646.036L990.515 638.386C991.465 638.369 992.347 637.894 992.89 637.114L1020.57 596.828H1053.7C1055.26 596.828 1056.55 595.624 1056.65 594.063C1056.75 592.503 1055.63 591.146 1054.07 590.942C1023.25 587.007 991.753 581.053 960.458 573.267C953.944 571.639 947.295 569.688 940.866 567.788C922.937 562.496 904.397 557.017 885.077 557.73C866.961 558.391 849.438 563.463 834.427 572.385C822.061 579.73 811.086 589.84 801.774 602.409L762.71 602.901C761.081 602.918 759.775 604.258 759.792 605.886C759.809 607.497 761.132 608.804 762.744 608.804H762.778L803.318 608.295C804.251 608.295 805.133 607.837 805.676 607.073C814.7 594.589 825.386 584.632 837.446 577.457C851.61 569.027 868.165 564.243 885.297 563.616C903.667 562.954 921.715 568.28 939.187 573.437C945.666 575.354 952.383 577.338 959.033 578.984C978.505 583.818 998.046 587.957 1017.45 591.349C1017.11 591.553 1016.81 591.841 1016.59 592.18L988.886 632.5L596.444 640.116C558.805 640.116 545.93 648.156 545.404 648.496C544.03 649.378 543.64 651.21 544.522 652.584C545.082 653.466 546.032 653.94 546.999 653.94H547.016Z" fill="#231F20"/>
<path d="M1317.36 657.791C1324.28 657.791 1328.2 657.774 1328.36 657.774C1329.98 657.774 1331.31 656.434 1331.29 654.806C1331.29 653.177 1329.97 651.871 1328.34 651.871H1328.32C1325.81 651.871 1076.26 653.16 991.16 632.568C989.582 632.178 987.988 633.162 987.598 634.739C987.207 636.317 988.191 637.911 989.769 638.301C1025.81 647.02 1093.77 652.94 1191.72 655.908C1246.7 657.57 1296.13 657.774 1317.36 657.774V657.791Z" fill="#231F20"/>
<path d="M1680.6 843.495C1712.18 843.495 1741.86 831.198 1764.19 808.875C1786.51 786.553 1798.81 756.851 1798.81 725.284C1798.81 693.717 1786.51 664.016 1764.19 641.694C1741.86 619.371 1712.16 607.073 1680.6 607.073C1649.03 607.073 1619.33 619.371 1597.01 641.694C1574.68 664.016 1562.39 693.717 1562.39 725.284C1562.39 756.851 1574.68 786.553 1597.01 808.875C1619.33 831.198 1649.03 843.495 1680.6 843.495ZM1680.6 612.942C1710.6 612.942 1738.81 624.629 1760.01 645.832C1781.23 667.052 1792.9 695.261 1792.9 725.25C1792.9 755.24 1781.22 783.465 1760.01 804.668C1738.79 825.888 1710.59 837.558 1680.6 837.558C1650.61 837.558 1622.38 825.871 1601.18 804.668C1579.96 783.448 1568.29 755.24 1568.29 725.25C1568.29 695.261 1579.98 667.035 1601.18 645.832C1622.4 624.612 1650.61 612.942 1680.6 612.942Z" fill="#231F20"/>
<path d="M1680.6 825.736C1736 825.736 1781.05 780.667 1781.05 725.284C1781.05 669.902 1735.98 624.833 1680.6 624.833C1625.21 624.833 1580.15 669.902 1580.15 725.284C1580.15 780.667 1625.21 825.736 1680.6 825.736ZM1680.6 630.719C1732.74 630.719 1775.15 673.142 1775.15 725.267C1775.15 777.393 1732.72 819.816 1680.6 819.816C1628.47 819.816 1586.05 777.393 1586.05 725.267C1586.05 673.142 1628.47 630.719 1680.6 630.719Z" fill="#231F20"/>
<path d="M1680.6 799.308C1721.43 799.308 1754.62 766.095 1754.62 725.284C1754.62 684.472 1721.41 651.26 1680.6 651.26C1639.79 651.26 1606.57 684.472 1606.57 725.284C1606.57 766.095 1639.79 799.308 1680.6 799.308ZM1680.6 657.146C1718.17 657.146 1748.72 687.712 1748.72 725.267C1748.72 762.822 1718.15 793.388 1680.6 793.388C1643.04 793.388 1612.48 762.822 1612.48 725.267C1612.48 687.712 1643.04 657.146 1680.6 657.146Z" fill="#231F20"/>
<path d="M462.611 849.415C494.195 849.415 523.879 837.118 546.201 814.795C568.524 792.472 580.822 762.771 580.822 731.204C580.822 699.637 568.524 669.936 546.201 647.613C523.879 625.291 494.178 612.993 462.611 612.993C431.044 612.993 401.342 625.291 379.02 647.613C356.697 669.936 344.4 699.637 344.4 731.204C344.4 762.771 356.697 792.472 379.02 814.795C401.342 837.118 431.044 849.415 462.611 849.415ZM462.611 618.879C492.617 618.879 520.825 630.566 542.029 651.769C563.248 672.989 574.919 701.198 574.919 731.187C574.919 761.177 563.232 789.402 542.029 810.605C520.809 831.825 492.6 843.495 462.611 843.495C432.621 843.495 404.396 831.808 383.193 810.605C361.973 789.385 350.302 761.177 350.302 731.187C350.302 701.198 361.99 672.972 383.193 651.769C404.413 630.549 432.621 618.879 462.611 618.879Z" fill="#231F20"/>
<path d="M462.611 831.656C518.01 831.656 563.062 786.587 563.062 731.204C563.062 675.822 517.993 630.753 462.611 630.753C407.229 630.753 362.159 675.822 362.159 731.204C362.159 786.587 407.229 831.656 462.611 831.656ZM462.611 636.639C514.753 636.639 557.159 679.062 557.159 731.187C557.159 783.313 514.736 825.736 462.611 825.736C410.485 825.736 368.062 783.313 368.062 731.187C368.062 679.062 410.485 636.639 462.611 636.639Z" fill="#231F20"/>
<path d="M462.611 805.229C503.439 805.229 536.635 772.016 536.635 731.205C536.635 690.393 503.422 657.181 462.611 657.181C421.799 657.181 388.587 690.393 388.587 731.205C388.587 772.016 421.799 805.229 462.611 805.229ZM462.611 663.067C500.183 663.067 530.732 693.633 530.732 731.188C530.732 768.742 500.166 799.309 462.611 799.309C425.056 799.309 394.49 768.742 394.49 731.188C394.49 693.633 425.056 663.067 462.611 663.067Z" fill="#231F20"/>
</svg>
