<svg width="1990" height="1301" viewBox="0 0 1990 1301" fill="none" xmlns="http://www.w3.org/2000/svg">
<path d="M274.853 872.619C304.266 872.619 332.509 864.341 357.036 848.617L1033.75 852.501L1217.25 853.841C1227.09 853.841 1236.62 849.77 1243.44 842.68C1244.63 841.442 1245.71 840.119 1246.71 838.745H1356.61C1366.62 838.745 1376 834.318 1382.35 826.6C1388.72 818.848 1391.27 808.738 1389.33 798.866C1387.18 787.976 1388.13 774.949 1390 763.924C1390.57 763.924 1391.13 763.924 1391.71 763.924C1399.92 791.301 1415.78 816.049 1437.61 835.081C1465.36 859.286 1500.96 872.619 1537.82 872.619C1571.48 872.619 1603.4 861.865 1630.12 841.527C1643.21 831.57 1654.59 819.476 1663.82 805.956C1664.7 808.263 1665.86 810.485 1667.28 812.572C1673.1 821.036 1682.7 826.074 1692.96 826.074H1901.23L1902.92 802.462C1903.16 799.273 1903.26 789.113 1896.77 779.699V762.516C1896.77 746.418 1887.79 732.017 1873.36 724.944C1842.88 709.949 1742.08 661.844 1670.23 644.423C1643.28 597.353 1592.63 567.584 1537.81 567.584C1505.58 567.584 1474.21 577.829 1448.31 596.623C1396.54 589.652 1346.06 584.936 1298.08 582.595C1284.81 581.951 1271.02 581.612 1257.1 581.612C1255.38 581.612 1253.64 581.612 1251.91 581.612C1237.57 566.396 1222.63 552.538 1207.38 540.342C1194.69 530.199 1177.32 516.306 1157.03 510.251C1144.24 506.434 1130.71 504.585 1115.65 504.585C1096.24 504.585 1077.6 507.639 1059.57 510.607C1054.63 511.421 1049.73 512.218 1044.86 512.948C1006.04 518.766 965.885 524.788 926.481 526.518C924.446 526.602 922.122 526.653 919.323 526.653H918.543V493.17C918.543 481.516 912.233 471.322 902.87 465.775C903.463 462.298 903.412 458.685 902.683 455.089C900.614 445.03 893.184 436.329 882.82 431.8L882.464 431.647C881.802 431.376 881.09 431.087 880.411 430.867C874.237 428.695 868.538 428.458 865.451 428.339C860.226 428.119 855.409 428 850.812 428C831.916 428 815.869 429.951 801.757 433.954C788.984 437.601 782.827 444.945 779.926 450.492C777.721 454.699 776.585 459.262 776.585 463.875L706.733 465.453C673.894 466.216 641.496 471.899 610.438 482.365L515.855 514.203L394.455 521.242C370.759 522.599 348.606 533.964 333.577 552.097C332.814 540.359 326.436 529.401 316.275 523.04C295.191 509.878 277.126 495.901 267.95 485.672C258.637 475.24 245.016 469.253 230.598 469.253C230.107 469.253 229.631 469.253 229.14 469.27C213.28 469.711 183.816 470.457 164.886 470.457C163.716 470.457 161.273 470.457 161.273 470.457C141.987 470.457 125.533 483.416 120.953 502.109L113.897 526.569C105.891 527.535 98.6138 531.606 93.5929 538.001C87.9953 545.142 85.8921 554.319 87.8089 563.207C89.9631 573.232 94.6107 602.679 91.0655 658.078C90.1495 672.683 98.3764 686.066 111.064 692.122V746.249H124.6C137.068 817.881 199.846 872.636 274.887 872.636L274.853 872.619Z" fill="white"/>
<path d="M274.853 872.619C304.266 872.619 332.509 864.341 357.036 848.617L1033.75 852.501L1217.25 853.841C1227.09 853.841 1236.62 849.77 1243.44 842.68C1244.63 841.442 1245.71 840.119 1246.71 838.745H1356.61C1366.62 838.745 1376 834.318 1382.35 826.6C1388.72 818.848 1391.27 808.738 1389.33 798.866C1387.18 787.976 1388.13 774.949 1390 763.924C1390.57 763.924 1391.13 763.924 1391.71 763.924C1399.92 791.301 1415.78 816.049 1437.61 835.081C1465.36 859.286 1500.96 872.619 1537.82 872.619C1571.48 872.619 1603.4 861.865 1630.12 841.527C1643.21 831.57 1654.59 819.476 1663.82 805.956C1664.7 808.263 1665.86 810.485 1667.28 812.572C1673.1 821.036 1682.7 826.074 1692.96 826.074H1901.23L1902.92 802.462C1903.16 799.273 1903.26 789.113 1896.77 779.699V762.516C1896.77 746.418 1887.79 732.017 1873.36 724.944C1842.88 709.949 1742.08 661.844 1670.23 644.423C1643.28 597.353 1592.63 567.584 1537.81 567.584C1505.58 567.584 1474.21 577.829 1448.31 596.623C1396.54 589.652 1346.06 584.936 1298.08 582.595C1284.81 581.951 1271.02 581.612 1257.1 581.612C1255.38 581.612 1253.64 581.612 1251.91 581.612C1237.57 566.396 1222.63 552.538 1207.38 540.342C1194.69 530.199 1177.32 516.306 1157.03 510.251C1144.24 506.434 1130.71 504.585 1115.65 504.585C1096.24 504.585 1077.6 507.639 1059.57 510.607C1054.63 511.421 1049.73 512.218 1044.86 512.948C1006.04 518.766 965.885 524.788 926.481 526.518C924.446 526.602 922.122 526.653 919.323 526.653H918.543V493.17C918.543 481.516 912.233 471.322 902.87 465.775C903.463 462.298 903.412 458.685 902.683 455.089C900.614 445.03 893.184 436.329 882.82 431.8L882.464 431.647C881.802 431.376 881.09 431.087 880.411 430.867C874.237 428.695 868.538 428.458 865.451 428.339C860.226 428.119 855.409 428 850.812 428C831.916 428 815.869 429.951 801.757 433.954C788.984 437.601 782.827 444.945 779.926 450.492C777.721 454.699 776.585 459.262 776.585 463.875L706.733 465.453C673.894 466.216 641.496 471.899 610.438 482.365L515.855 514.203L394.455 521.242C370.759 522.599 348.606 533.964 333.577 552.097C332.814 540.359 326.436 529.401 316.275 523.04C295.191 509.878 277.126 495.901 267.95 485.672C258.637 475.24 245.016 469.253 230.598 469.253C230.107 469.253 229.631 469.253 229.14 469.27C213.28 469.711 183.816 470.457 164.886 470.457C163.716 470.457 161.273 470.457 161.273 470.457C141.987 470.457 125.533 483.416 120.953 502.109L113.897 526.569C105.891 527.535 98.6138 531.606 93.5929 538.001C87.9953 545.142 85.8921 554.319 87.8089 563.207C89.9631 573.232 94.6107 602.679 91.0655 658.078C90.1495 672.683 98.3764 686.066 111.064 692.122V746.249H124.6C137.068 817.881 199.846 872.636 274.887 872.636L274.853 872.619Z" stroke="#231F20" stroke-width="6.25913" stroke-linecap="round" stroke-linejoin="round"/>
<path d="M1418.26 676.941C1423.02 663.728 1429.91 651.532 1438.53 640.778C1443.61 634.417 1449.3 628.548 1455.51 623.289H1455.52C1477.69 604.41 1506.41 593.028 1537.81 593.028C1588.9 593.028 1632.95 623.187 1653.12 666.679C1660.67 682.929 1664.87 701.028 1664.87 720.111C1664.87 790.284 1607.98 847.176 1537.81 847.176C1473.89 847.176 1420.99 799.987 1412.06 738.566C1411.18 732.544 1410.72 726.37 1410.72 720.111C1410.72 704.946 1413.39 690.41 1418.26 676.941ZM1537.81 828.484C1597.67 828.484 1646.18 779.954 1646.18 720.111C1646.18 660.267 1597.67 611.721 1537.81 611.721C1477.95 611.721 1429.42 660.25 1429.42 720.111C1429.42 779.971 1477.95 828.484 1537.81 828.484Z" stroke="#231F20" stroke-width="6.25913" stroke-linecap="round" stroke-linejoin="round"/>
<path d="M1537.81 611.72C1597.67 611.72 1646.18 660.249 1646.18 720.11C1646.18 779.97 1597.67 828.482 1537.81 828.482C1477.95 828.482 1429.42 779.953 1429.42 720.11C1429.42 660.266 1477.95 611.72 1537.81 611.72ZM1537.81 790.504C1576.68 790.504 1608.2 758.987 1608.2 720.11C1608.2 681.232 1576.68 649.699 1537.81 649.699C1498.93 649.699 1467.4 681.215 1467.4 720.11C1467.4 759.004 1498.93 790.504 1537.81 790.504Z" stroke="#231F20" stroke-width="6.25913" stroke-linecap="round" stroke-linejoin="round"/>
<path d="M1537.81 649.7C1576.68 649.7 1608.2 681.216 1608.2 720.111C1608.2 759.006 1576.68 790.505 1537.81 790.505C1498.93 790.505 1467.4 758.989 1467.4 720.111C1467.4 681.233 1498.93 649.7 1537.81 649.7ZM1537.81 747.862C1553.12 747.862 1565.56 735.428 1565.56 720.111C1565.56 704.794 1553.12 692.361 1537.81 692.361C1522.49 692.361 1510.06 704.777 1510.06 720.111C1510.06 735.445 1522.47 747.862 1537.81 747.862Z" stroke="#231F20" stroke-width="6.25913" stroke-linecap="round" stroke-linejoin="round"/>
<path d="M1510.06 720.11C1510.06 735.427 1522.47 747.86 1537.81 747.86C1553.14 747.86 1565.56 735.427 1565.56 720.11C1565.56 704.793 1553.12 692.359 1537.81 692.359C1522.49 692.359 1510.06 704.776 1510.06 720.11Z" stroke="#231F20" stroke-width="6.25913" stroke-linecap="round" stroke-linejoin="round"/>
<path d="M1664.89 725.062L1695.27 725.028" stroke="#231F20" stroke-width="6.25913" stroke-linecap="round" stroke-linejoin="round"/>
<path d="M1867.81 764.484H1871.32V762.516C1871.32 756.257 1867.78 750.541 1862.14 747.776C1830.24 732.086 1722.15 680.52 1653.12 666.679" stroke="#231F20" stroke-width="6.25913" stroke-linecap="round" stroke-linejoin="round"/>
<path d="M1849.41 764.484H1849.46" stroke="#231F20" stroke-width="6.25913" stroke-linecap="round" stroke-linejoin="round"/>
<path d="M1692.95 800.631H1856.9C1856.9 800.631 1857.55 796.441 1857.36 790.504H1867.81V764.484H1849.46C1846.51 760.498 1842.49 757.021 1837.04 754.68C1837.04 754.68 1796.42 740.821 1766.32 722.434C1756.96 716.701 1747.22 711.697 1736.96 707.813C1725.07 703.318 1709.6 698.008 1696.91 695.498C1693.3 694.802 1690.23 698.093 1691.11 701.672C1692.49 707.083 1694.18 715.191 1695.25 725.029C1696.27 734.308 1696.69 745.113 1695.73 756.63C1694.78 768.301 1692.35 780.717 1687.62 792.998C1686.21 796.679 1689.01 800.631 1692.96 800.631H1692.95Z" stroke="#231F20" stroke-width="6.25913" stroke-linecap="round" stroke-linejoin="round"/>
<path d="M1857.35 790.504H1857.36" stroke="#231F20" stroke-width="6.25913" stroke-linecap="round" stroke-linejoin="round"/>
<path d="M1856.9 800.63H1877.55C1877.55 800.63 1878.28 790.504 1867.81 790.504C1867.81 790.504 1849.49 785.652 1856.9 800.63Z" stroke="#231F20" stroke-width="6.25913" stroke-linecap="round" stroke-linejoin="round"/>
<path d="M1659.55 756.631H1695.71" stroke="#231F20" stroke-width="6.25913" stroke-linecap="round" stroke-linejoin="round"/>
<path d="M1130.76 646.289C1091.66 658.281 1060.72 683.233 1029 707.88C1000.03 730.406 968.26 749.336 934.64 764.059C899.257 779.563 860.294 785.432 822.01 788.044C811.629 788.739 801.231 789.163 790.833 789.333L391.792 773.558" stroke="#231F20" stroke-width="6.25913" stroke-linecap="round" stroke-linejoin="round"/>
<path d="M1226.11 753.696C1226.83 753.492 1227.58 753.306 1228.33 753.119" stroke="#231F20" stroke-width="6.25913" stroke-linecap="round" stroke-linejoin="round"/>
<path d="M1418.26 676.923C1418.26 676.923 1381.84 670.443 1310.83 673.497C1302.49 673.853 1297.82 664.167 1303.13 657.722C1310.12 649.24 1323.67 635.552 1373.93 635.552" stroke="#231F20" stroke-width="6.25913" stroke-linecap="round" stroke-linejoin="round"/>
<path d="M377.357 795.203L869.929 808.553C916.202 803.227 1006.22 792.099 1070.1 761.295C1104.59 744.689 1147.81 736.31 1180.46 732.12C1198.49 729.813 1213.3 728.762 1221.64 728.32C1225.63 728.1 1228.92 731.306 1228.8 735.275C1228.67 739.736 1228.5 745.961 1228.33 753.12C1268.99 742.705 1329.41 739.6 1369.73 738.752C1394.78 738.227 1412.06 738.566 1412.06 738.566C1411.18 732.544 1410.72 726.37 1410.72 720.111C1410.72 704.946 1413.39 690.41 1418.26 676.941C1423.02 663.728 1429.91 651.532 1438.53 640.777C1438.53 640.777 1312.38 627.699 1223.97 633.535C1192.93 635.587 1160.77 637.097 1130.83 646.273C1130.83 646.273 1130.81 646.273 1130.76 646.29C1127.93 646.952 1037.01 668.24 976.622 670.631C876.833 674.55 771.75 660.81 506.645 706.524C470.243 717.855 434.317 730.78 399.307 745.86C395.575 764.026 387.959 780.768 377.357 795.203Z" stroke="#231F20" stroke-width="6.25913" stroke-linecap="round" stroke-linejoin="round"/>
<path d="M506.645 706.523C771.75 660.809 876.833 674.549 976.622 670.63C1037.01 668.239 1127.93 646.951 1130.76 646.289C1130.81 646.272 1130.83 646.272 1130.83 646.272C1160.77 637.096 1192.93 635.586 1223.97 633.534C1312.38 627.699 1438.53 640.777 1438.53 640.777C1443.61 634.416 1449.3 628.547 1455.51 623.288C1402.92 615.91 1349.88 610.583 1296.84 608.005C1253.94 605.902 1210.98 607.445 1168.2 610.838C1163.4 611.211 1158.6 611.618 1153.81 612.042C1135.78 613.637 1117.82 615.655 1099.87 617.809C1071.54 621.202 1043.27 624.917 1014.79 627.8C920.629 637.333 826.166 641.302 732.415 655.229C655.778 666.593 580.635 683.471 506.645 706.523Z" stroke="#231F20" stroke-width="6.25913" stroke-linecap="round" stroke-linejoin="round"/>
<path d="M398.798 746.079C398.967 746.011 399.137 745.926 399.306 745.858" stroke="#231F20" stroke-width="6.25913" stroke-linecap="round" stroke-linejoin="round"/>
<path d="M893.082 551.554V493.17C893.082 489.624 890.165 486.758 886.603 486.843L869.114 487.25L866.791 487.301L817.311 488.42L707.276 490.914C677.083 491.609 647.161 496.85 618.529 506.502L520.706 539.426" stroke="#231F20" stroke-width="6.25913" stroke-linecap="round" stroke-linejoin="round"/>
<path d="M870.302 552.707V490.591" stroke="#231F20" stroke-width="6.25913" stroke-linecap="round" stroke-linejoin="round"/>
<path d="M893.082 539.461H869.131" stroke="#231F20" stroke-width="6.25913" stroke-linecap="round" stroke-linejoin="round"/>
<path d="M836.344 578.354C835.614 581.035 835.241 583.85 835.241 586.666V603.544" stroke="#231F20" stroke-width="6.25913" stroke-linecap="round" stroke-linejoin="round"/>
<path d="M1240.71 607.056C1225.61 590.229 1209.14 574.353 1191.49 560.24C1179.29 550.486 1164.84 539.156 1149.74 534.644C1116.55 524.738 1081.82 533.151 1048.61 538.121C1008.88 544.075 968.124 550.164 927.584 551.945C921.918 552.2 915.642 552.098 909.044 551.996" stroke="#231F20" stroke-width="6.25913" stroke-linecap="round" stroke-linejoin="round"/>
<path d="M1227.92 813.302H1356.6C1361.64 813.302 1365.32 808.705 1364.35 803.769C1358.72 775.289 1368.69 742.127 1369.73 738.752C1329.41 739.6 1268.99 742.704 1228.33 753.119C1227.89 771.846 1227.48 796.899 1227.92 813.302Z" stroke="#231F20" stroke-width="6.25913" stroke-linecap="round" stroke-linejoin="round"/>
<path d="M1226.11 813.301H1227.92" stroke="#231F20" stroke-width="6.25913" stroke-linecap="round" stroke-linejoin="round"/>
<path d="M1369.73 738.751C1369.79 738.565 1369.83 738.463 1369.83 738.463" stroke="#231F20" stroke-width="6.25913" stroke-linecap="round" stroke-linejoin="round"/>
<path d="M869.132 808.637C869.386 808.603 869.657 808.569 869.929 808.552" stroke="#231F20" stroke-width="6.25913" stroke-linecap="round" stroke-linejoin="round"/>
<path d="M1179.37 828.126L1217.15 828.398C1223.32 828.448 1228.29 823.36 1228.04 817.202C1227.99 815.964 1227.95 814.658 1227.92 813.301C1227.48 796.898 1227.89 771.845 1228.33 753.118C1228.5 745.96 1228.67 739.735 1228.8 735.274C1228.92 731.305 1225.63 728.099 1221.64 728.319C1213.3 728.76 1198.49 729.812 1180.46 732.119L1179.37 828.126Z" stroke="#231F20" stroke-width="6.25913" stroke-linecap="round" stroke-linejoin="round"/>
<path d="M869.929 808.553L1028.71 812.844C1033.4 812.963 1036.69 817.492 1035.38 821.987L1033.89 827.059L1179.37 828.127L1180.46 732.12C1147.81 736.31 1104.59 744.689 1070.1 761.295C1006.22 792.099 916.202 803.227 869.929 808.553Z" stroke="#231F20" stroke-width="6.25913" stroke-linecap="round" stroke-linejoin="round"/>
<path d="M351.778 822.089L1033.89 827.059" stroke="#231F20" stroke-width="6.25913" stroke-linecap="round" stroke-linejoin="round"/>
<path d="M376.611 795.186L377.357 795.203" stroke="#231F20" stroke-width="6.25913" stroke-linecap="round" stroke-linejoin="round"/>
<path d="M1098.8 609.294L1099.87 617.809C1117.82 615.655 1135.78 613.636 1153.81 612.042C1158.59 611.618 1163.4 611.211 1168.2 610.837L1165.13 602.39L1164.09 599.54C1162.04 593.875 1156.66 590.109 1150.62 590.109H1115.73C1105.47 590.109 1097.53 599.099 1098.8 609.294Z" stroke="#231F20" stroke-width="6.25913" stroke-linecap="round" stroke-linejoin="round"/>
<path d="M969.04 600.033L358.834 624.747" stroke="#231F20" stroke-width="6.25913" stroke-linecap="round" stroke-linejoin="round"/>
<path d="M859.208 466.827L866.791 487.284" stroke="#231F20" stroke-width="6.25913" stroke-linecap="round" stroke-linejoin="round"/>
<path d="M809.339 466.827L817.311 488.42" stroke="#231F20" stroke-width="6.25913" stroke-linecap="round" stroke-linejoin="round"/>
<path d="M802.232 465.267C803.369 468.625 806.88 468.88 810.035 468.727C810.815 468.71 811.578 468.659 812.274 468.608C818.075 468.286 823.893 467.998 829.711 467.777C837.141 467.489 844.57 467.302 852 467.183C854.425 467.15 856.868 467.183 859.311 467.15C863.789 467.116 868.25 466.878 872.592 465.64C874.085 465.216 875.595 464.639 876.663 463.503C879.801 460.161 875.815 456.514 872.626 455.123C872.423 455.038 872.202 454.954 871.998 454.886C869.59 454.021 866.995 453.868 864.433 453.766C846.012 452.986 826.539 453.376 808.695 458.448C805.777 459.279 800.909 461.331 802.232 465.267Z" stroke="#231F20" stroke-width="6.25913" stroke-linecap="round" stroke-linejoin="round"/>
<path d="M836.343 578.355C836.343 578.355 855.884 578.423 866.791 573.945C873.576 571.163 884.5 570.264 891.793 569.975C896 569.806 899.868 567.465 901.733 563.699C904.787 557.542 909.044 551.995 909.044 551.995C888.995 551.707 866.112 551.402 849.455 560.816C842.789 564.564 838.277 571.044 836.343 578.355Z" stroke="#231F20" stroke-width="6.25913" stroke-linecap="round" stroke-linejoin="round"/>
<path d="M846.351 605.002C846.351 605.002 844.977 581.781 848.098 578.354" stroke="#231F20" stroke-width="6.25913" stroke-linecap="round" stroke-linejoin="round"/>
<path d="M1098.67 610.94L1007.78 613.23L994.738 613.552C987.309 613.739 980.168 610.719 975.147 605.24L954.232 582.477C953.299 581.459 953.842 579.814 955.199 579.542L967.056 577.253L975.333 575.658C991.821 572.469 1008.31 569.297 1024.78 566.108C1039.89 563.191 1054.99 560.273 1070.1 557.356C1096.9 552.182 1126.37 544.498 1152.57 556.253C1164.35 561.528 1174.61 569.602 1184.5 577.778C1187.86 580.56 1190.96 584.19 1192.4 588.397C1193.96 592.977 1192.27 596.878 1187.92 599.049L1165.11 602.374" stroke="#231F20" stroke-width="6.25913" stroke-linecap="round" stroke-linejoin="round"/>
<path d="M967.055 577.286C967.055 577.286 992.991 609.99 1005.46 613.586" stroke="#231F20" stroke-width="6.25913" stroke-linecap="round" stroke-linejoin="round"/>
<path d="M329.269 603.883L520.707 539.426L395.897 546.669C377.018 547.754 359.751 557.711 349.336 573.486L329.269 603.883Z" stroke="#231F20" stroke-width="6.25913" stroke-linecap="round" stroke-linejoin="round"/>
<path d="M252.938 548.553L250.122 595.437C258.111 593.86 266.389 593.028 274.853 593.028C284.709 593.028 294.292 594.148 303.503 596.268L307.642 559.884L308.1 555.796C308.609 551.352 306.556 547.026 302.757 544.652C290.747 537.154 264.184 519.666 248.969 502.687C244.151 497.293 237.044 494.528 229.818 494.731C212.177 495.223 180.288 496.02 161.341 495.919C153.742 495.868 147.177 501.16 145.532 508.573L133.183 551.386L252.039 548.315H252.276C252.514 548.4 252.734 548.485 252.938 548.553Z" stroke="#231F20" stroke-width="6.25913" stroke-linecap="round" stroke-linejoin="round"/>
<path d="M303.486 596.37L303.503 596.269" stroke="#231F20" stroke-width="6.25913" stroke-linecap="round" stroke-linejoin="round"/>
<path d="M252.938 548.552V548.434" stroke="#231F20" stroke-width="6.25913" stroke-linecap="round" stroke-linejoin="round"/>
<path d="M252.259 548.315C241.963 544.583 204.544 529.028 192.145 496.206" stroke="#231F20" stroke-width="6.25913" stroke-linecap="round" stroke-linejoin="round"/>
<path d="M252.938 548.552C254.193 548.993 254.889 549.213 254.889 549.213" stroke="#231F20" stroke-width="6.25913" stroke-linecap="round" stroke-linejoin="round"/>
<path d="M252.277 548.314L307.201 549.858" stroke="#231F20" stroke-width="6.25913" stroke-linecap="round" stroke-linejoin="round"/>
<path d="M155.608 676.109L157.898 676.567" stroke="#231F20" stroke-width="6.25913" stroke-linecap="round" stroke-linejoin="round"/>
<path d="M112.642 557.796C115.254 569.975 120.122 601.831 116.424 659.69C116.119 664.541 119.393 668.917 124.159 669.867L136.474 672.31V720.788H147.771V720.11C147.771 704.64 150.536 689.815 155.607 676.109C170.721 635.111 206.393 604.053 250.122 595.436L252.938 548.552C252.734 548.484 252.514 548.399 252.276 548.314H252.039L133.183 551.385L117.391 551.792C114.253 551.877 111.98 554.743 112.642 557.796Z" stroke="#231F20" stroke-width="6.25913" stroke-linecap="round" stroke-linejoin="round"/>
<path d="M155.607 676.11C170.721 635.112 206.393 604.054 250.122 595.437C258.111 593.859 266.389 593.028 274.853 593.028C284.708 593.028 294.292 594.148 303.503 596.268C324.383 601.085 343.296 611.042 358.834 624.748C385.261 648.037 401.919 682.115 401.919 720.111C401.919 728.931 401.02 737.548 399.306 745.86C395.575 764.026 387.958 780.768 377.357 795.203C354.237 826.719 316.937 847.176 274.853 847.176C204.883 847.176 148.144 790.657 147.771 720.789V720.111C147.771 704.641 150.536 689.816 155.607 676.11ZM274.853 828.484C334.697 828.484 383.226 779.954 383.226 720.111C383.226 660.267 334.697 611.721 274.853 611.721C215.01 611.721 166.463 660.25 166.463 720.111C166.463 779.971 214.993 828.484 274.853 828.484Z" stroke="#231F20" stroke-width="6.25913" stroke-linecap="round" stroke-linejoin="round"/>
<path d="M274.853 611.72C334.697 611.72 383.226 660.249 383.226 720.11C383.226 779.97 334.697 828.482 274.853 828.482C215.01 828.482 166.463 779.953 166.463 720.11C166.463 660.266 214.993 611.72 274.853 611.72ZM274.853 790.504C313.731 790.504 345.247 758.987 345.247 720.11C345.247 681.232 313.731 649.699 274.853 649.699C235.975 649.699 204.442 681.215 204.442 720.11C204.442 759.004 235.958 790.504 274.853 790.504Z" stroke="#231F20" stroke-width="6.25913" stroke-linecap="round" stroke-linejoin="round"/>
<path d="M274.853 649.7C313.731 649.7 345.247 681.216 345.247 720.111C345.247 759.006 313.731 790.505 274.853 790.505C235.975 790.505 204.442 758.989 204.442 720.111C204.442 681.233 235.958 649.7 274.853 649.7ZM274.853 747.862C290.17 747.862 302.603 735.428 302.603 720.111C302.603 704.794 290.17 692.361 274.853 692.361C259.536 692.361 247.102 704.777 247.102 720.111C247.102 735.445 259.519 747.862 274.853 747.862Z" stroke="#231F20" stroke-width="6.25913" stroke-linecap="round" stroke-linejoin="round"/>
<path d="M247.103 720.11C247.103 735.427 259.52 747.86 274.854 747.86C290.188 747.86 302.604 735.427 302.604 720.11C302.604 704.793 290.171 692.359 274.854 692.359C259.537 692.359 247.103 704.776 247.103 720.11Z" stroke="#231F20" stroke-width="6.25913" stroke-linecap="round" stroke-linejoin="round"/>
</svg>
