<?xml version="1.0" encoding="UTF-8"?>
<svg id="Text" xmlns="http://www.w3.org/2000/svg" viewBox="0 0 1353.38 1000">
  <defs>
    <style>
      .cls-1 {
        fill: #231f20;
      }
    </style>
  </defs>
  <path class="cls-1" d="M844.52,486.16c.18-.68.35-1.37.52-2.06.19-.72.38-1.45.54-2.21,4.79-20.49,5.8-41.9,2.78-63.36-4.97-35.35-20.38-67.56-44.18-93.17-.83-.9-1.68-1.78-2.54-2.67-.35-.36-.69-.73-1.05-1.09-.97-.98-1.95-1.95-2.95-2.92,0,0,0,0,0,0-5.06-4.9-10.47-9.57-16.25-13.92-10.28-7.74-21.16-14.17-32.31-19.19-1.18-.54-2.36-1.06-3.54-1.57-.06-.03-.12-.05-.18-.08-48.63-20.78-103.95-17.75-149.66,6.82-1.46.69-2.82,1.44-4.11,2.21-.04.02-.07.03-.11.04-3.75,2.02-7.29,4.28-10.65,6.73-15.34,10.37-29.25,23.4-41,38.99-14.25,18.91-24.26,40.08-29.77,62.4-.21.32-.37.68-.46,1.07-.32,1.53-.6,3.07-.85,4.61-4.09,19.38-4.81,39.52-1.98,59.71,6.41,45.62,30.2,86.01,66.99,113.74,30.22,22.77,66.25,34.77,103.44,34.77,8.08,0,16.21-.57,24.36-1.71,20.24-2.84,39.44-9.11,56.97-18.42,1.38-.65,2.74-1.32,4.08-2.03.36-.19.65-.44.9-.73,19.93-11.45,37.53-26.91,51.78-45.82,12.08-16.03,21.13-33.7,26.96-52.3.87-2.56,1.61-5.19,2.26-7.86ZM755.57,589.54c-1.29.6-2.6,1.17-3.93,1.72,3.03-3.01,5.91-6.32,8.63-9.9,5.25-1.32,10.31-2.98,15.17-4.97-1.65,1.39-3.32,2.73-5.08,3.95-.36.25-.65.57-.86.92-4.5,2.99-9.15,5.75-13.93,8.28ZM591.38,300.24c.29-.1.57-.22.83-.41.34-.25.7-.46,1.05-.7,2.96-1.73,5.96-3.37,9-4.91.64-.27,1.29-.5,1.94-.74-3.49,3.13-6.68,6.55-9.53,10.24-5.27,1.3-10.39,2.95-15.31,4.93,1.58-1.35,3.22-2.64,4.91-3.88,2.33-1.58,4.7-3.09,7.09-4.53ZM765.69,573.52c4.09-6.49,7.73-13.69,10.85-21.52,7.65-1.91,14.9-4.54,21.65-7.9-2.96,7.15-6.6,13.65-10.83,19.42-6.64,4.16-13.9,7.5-21.67,10.01ZM688.15,574.48c5.18-7.18,10.2-15.23,15.02-24.01,10.63,2.66,21.14,4.31,31.37,4.97-4.15,8.74-8.77,16.7-13.83,23.69-10.57-.45-21.49-2-32.56-4.64ZM662.88,593.4c-10.78-2.98-21.62-7.03-32.32-12.07,4.4-4.7,8.93-10.18,13.47-16.17,11.15,5.34,22.42,9.64,33.61,12.86-4.99,6.21-9.95,11.36-14.76,15.39ZM589.4,311.47c-3.21,5.4-5.72,11.13-7.57,17.12-8.95,3.18-17.22,7.04-24.71,11.45,2.58-6.57,5.99-12.78,10.27-18.53,6.76-4.25,14.17-7.56,22.02-10.04ZM619.19,289.93c6.93-.83,14.23-.75,21.66.08-3.53,2.92-6.74,6.2-9.59,9.82-9.09-.15-18.08.43-26.75,1.86,4.31-4.48,9.23-8.42,14.69-11.76ZM641.69,280.31s.08,0,.13,0c4.32-.74,9.82-1.18,16.21-.68-3.46,1.47-6.74,3.19-9.84,5.12-5.71-.77-11.21-1.12-16.46-1.11,3.2-1.28,6.52-2.39,9.96-3.33ZM721.98,282.59c2.63,1.29,5.15,3.2,7.49,5.64-3.49-.59-6.94-.96-10.33-1.13-2.71-2.53-5.52-4.76-8.36-6.73,3.72.57,7.46,1.3,11.19,2.22ZM787.53,508.33c1.45-11.32,1.99-23.02,1.65-34.94,5.79-1.59,11.26-3.75,16.32-6.49,1.72,11.13,2.37,22.12,1.93,32.84-6.1,3.64-12.77,6.51-19.9,8.6ZM771.97,546.87c-8.92,1.97-18.38,2.92-28.2,2.87,4.07-9.65,7.66-20.11,10.68-31.19.66,0,1.33.05,1.98.05,8.2,0,16.14-.76,23.71-2.26-.49,2.79-1.03,5.56-1.63,8.29-1.75,7.88-3.95,15.31-6.54,22.25ZM583.45,572.46l6.32-8.38c9.89,7.25,20.13,13.61,30.56,19.01-3.12,2.92-6.03,5.19-8.68,6.68-9.66-4.88-19.12-10.67-28.21-17.31ZM531.96,517.01c-.03-3.52.64-7.42,1.94-11.63,5.79,8.99,12.45,17.74,19.93,26.12-1.85,3.51-3.28,6.76-4.3,9.72-6.65-7.74-12.54-15.86-17.57-24.21ZM536.6,498.25c2.54-5.74,6.13-11.93,10.72-18.44,6.17,9.85,13.36,19.47,21.55,28.69-4.75,6.31-8.7,12.1-11.86,17.36-7.76-8.86-14.61-18.12-20.42-27.62ZM586.81,333.48c10.17-3.37,20.91-5.78,32.07-7.19-1.24,5.63-1.82,11.48-1.75,17.48-11.54,2.95-22.63,6.69-33.1,11.2.04-7.43.96-14.63,2.78-21.49ZM634.35,305.92c11.01.42,22.17,1.99,33.11,4.56-1.75,2.81-3.18,5.8-4.3,8.92-12.47-1.13-24.46-1.18-35.86-.28,1.76-4.67,4.12-9.08,7.05-13.21ZM716.55,293.05c5.02,5.01,9.68,11.1,13.51,18.26-.98.11-1.95.25-2.9.43-6.7-7.35-13.33-13.37-19.79-18.27,2.52-.29,5.1-.45,7.74-.45.48,0,.96.03,1.44.03ZM744.69,318.48c.17.06.35.1.53.12,2.94.79,5.91,1.93,8.86,3.35.27.2.59.36.93.46,3.03,1.52,6.03,3.34,8.92,5.51,2.87,2.16,5.45,4.51,7.74,6.99.21.35.47.64.78.87,2.19,2.47,4.09,5.06,5.67,7.69.08.16.17.32.28.46,1.69,2.89,2.99,5.83,3.88,8.75.04.18.09.35.16.51.73,2.49,1.15,4.95,1.26,7.35-.02.26-.01.52.03.77.1,4.98-1.2,9.61-4.06,13.41-1.23,1.64-2.73,3.03-4.42,4.21-.31.08-.61.19-.89.36-.32.2-.58.45-.79.73-4.04,2.29-9.08,3.42-14.78,3.24-3.08-.09-6.23-.6-9.38-1.41-.09-.03-.18-.05-.27-.07-3.09-.82-6.16-1.96-9.18-3.43-.24-.17-.5-.32-.79-.42-.02,0-.04,0-.05-.01-3.01-1.52-5.95-3.32-8.77-5.44-2.8-2.11-5.33-4.44-7.62-6.9-.01-.02-.02-.04-.03-.06-.18-.26-.4-.47-.64-.66-2.19-2.44-4.1-5.01-5.71-7.68-.08-.17-.17-.34-.28-.49-1.64-2.79-2.98-5.66-3.92-8.58-1.73-5.4-2.04-10.53-.98-15.02.23-.3.41-.64.53-1.02.1-.35.13-.7.1-1.04.67-1.93,1.59-3.73,2.81-5.35,2.87-3.81,7-6.32,11.84-7.59.24-.03.48-.08.71-.17,2.27-.53,4.67-.83,7.18-.83.09,0,.18.01.27.01.09,0,.18.04.27.04.05,0,.11-.01.16-.02,3.1.06,6.34.51,9.64,1.36ZM776.44,316.38c3.45,2.74,6.71,5.63,9.75,8.65-3.44,1.1-7.16,2.67-11.15,4.56-1.57-1.62-3.25-3.17-5.04-4.66l6.44-8.55ZM798.44,339.57c-5.05-.81-10.45-1.04-15.99-.63-.98-1.54-2.05-3.07-3.21-4.56,4.09-1.88,8.09-3.48,11.68-4.34,2.73,3.08,5.25,6.26,7.53,9.53ZM829.68,379.97c1.26,4.07,2.24,8.09,2.94,12.04-3.6-4.57-7.95-9.18-13.18-13.72-.22-3.12-.66-6.31-1.35-9.55,4.69,3.47,8.59,7.31,11.58,11.24ZM812.65,372.8c-6.49-4.86-14.1-9.57-23.02-13.99-.09-.96-.22-1.93-.39-2.9,7.93,1.71,15.06,4.5,21.26,7.94.93,3.03,1.66,6.02,2.15,8.95ZM812.93,389.8c-6.75-7.52-14.65-14.81-23.79-21.64.18-.84.33-1.68.43-2.54,9.52,4.93,17.38,10.2,23.88,15.58.07,2.95-.11,5.82-.52,8.59ZM626.13,505.67c-9.75-7.55-18.65-15.68-26.63-24.2,4.04-4.5,8.16-8.97,12.28-13.32,3.71-3.92,7.52-7.86,11.4-11.81,7.17,7.62,15.12,14.88,23.82,21.64l-20.87,27.7ZM604.93,533.79c-10.26-7.94-19.62-16.5-27.99-25.49,5.6-7.22,11.89-14.75,18.49-22.26,8.12,8.64,17.14,16.86,27.02,24.51l-17.51,23.24ZM660.44,342.75c.37,4.14,1.15,8.39,2.36,12.73-12.18,3.41-24.21,7.52-35.94,12.32-1.87-6.49-3.07-12.94-3.51-19.24,11.94-2.79,24.35-4.75,37.09-5.81ZM707.69,325.19c-.4.73-.75,1.48-1.08,2.24-12.74-3.53-25.16-5.96-37.16-7.38,1.12-2.82,2.56-5.49,4.28-7.98,11.86,3.24,23.34,7.69,33.96,13.12ZM745.14,387c-1.24,12.23-2.93,24.2-5.02,35.83-4.42-1.33-8.86-3-13.28-5.03,5.27-12.01,9.75-23.13,13.12-32.71,1.71.73,3.44,1.36,5.17,1.91ZM755.95,389.2c1.78,12.2,2.8,24.69,3.09,37.22-4.27-.32-8.64-1-13.06-2.03,2.19-11.89,3.93-23.89,5.17-35.86,1.61.31,3.21.53,4.8.68ZM775.01,386.17c6.76,11.05,12.55,22.4,17.26,33.88-2.92,1.64-6.08,2.96-9.41,3.99-2.73-12.24-6.33-24.5-10.79-36.63,1.01-.36,1.99-.77,2.94-1.23ZM782.06,381.23c8.15,8.71,15.59,18.52,21.97,29.02-1.93,2.36-4.11,4.46-6.49,6.31-4.67-11.14-10.43-22.41-17.33-33.68.64-.52,1.26-1.07,1.85-1.65ZM766.12,388.91c4.48,12.13,8.09,24.37,10.81,36.59-3.74.71-7.64,1.1-11.68,1.13-.31-12.57-1.35-25.05-3.1-37.31,1.36-.07,2.68-.21,3.97-.42ZM687.19,396.82c3.81,3.99,7.97,7.79,12.43,11.33l-22.63,30.03c-6.57-5.14-12.6-10.64-18.06-16.4,9.62-8.85,19.16-17.28,28.26-24.96ZM654.82,417.26c-5.36-6.12-10.09-12.48-14.15-18.99,10.44-6.43,21.49-12.64,33.09-18.53,2.74,4.33,5.87,8.53,9.32,12.55-9.11,7.69-18.65,16.12-28.26,24.96ZM704.51,411.83c4.68,3.35,9.49,6.3,14.37,8.85-4.88,10.87-10.36,22.37-16.21,34.06-7.06-3.66-14.02-7.96-20.79-12.87l22.64-30.04ZM724.37,423.36c4.86,2.22,9.76,4.03,14.63,5.46-2.47,12.8-5.4,25.16-8.71,36.99-7.37-2.11-14.79-4.9-22.15-8.36,5.86-11.69,11.34-23.2,16.23-34.09ZM721.36,415.08c-4.46-2.36-8.87-5.07-13.17-8.14l20.96-27.81c1.72,1.18,3.48,2.27,5.27,3.26-3.32,9.53-7.78,20.65-13.06,32.69ZM703.31,403.26c-4.09-3.25-7.9-6.72-11.41-10.37,10.12-8.4,19.58-15.75,27.83-21.57,1.43,1.44,2.95,2.81,4.54,4.13l-20.96,27.81ZM687.77,388.37c-3.14-3.66-5.99-7.46-8.5-11.38,10.61-5.21,21.65-10.14,33.07-14.7,1.01,1.52,2.09,3,3.27,4.44-8.29,5.88-17.74,13.25-27.84,21.64ZM676.16,371.8c-2.18-3.93-4.05-7.94-5.55-12.02,12.12-3.18,24.4-5.64,36.62-7.29.58,1.5,1.24,2.98,1.98,4.45-11.17,4.5-22.23,9.47-33.06,14.85ZM704.88,333.33c-.18,1.04-.31,2.09-.38,3.17-12.9-.94-25.67-1.02-38.18-.28.06-3.51.47-6.91,1.23-10.15,12.33,1.37,24.84,3.8,37.33,7.26ZM704.71,342.65c.16,1.29.39,2.61.7,3.93-12.26,1.69-24.54,4.13-36.7,7.29-1.1-3.93-1.81-7.79-2.15-11.53,12.5-.75,25.26-.66,38.15.31ZM664.7,361.4c1.61,4.46,3.63,8.86,6.01,13.16-11.35,5.82-22.43,12.05-33.06,18.59-3.61-6.4-6.57-12.89-8.85-19.38,11.61-4.76,23.66-8.91,35.91-12.37ZM632.48,396.38c-10.72,6.79-20.96,13.87-30.57,21.13-4.67-8.26-8.46-16.64-11.34-25.02,10.25-5.95,21.19-11.46,32.62-16.39,2.41,6.8,5.51,13.59,9.28,20.27ZM635.51,401.48c4.25,6.83,9.22,13.51,14.83,19.92-9.09,8.46-18.18,17.24-26.97,26.05-7.01-7.95-13.15-16.25-18.37-24.73,9.42-7.2,19.6-14.33,30.51-21.24ZM619.05,451.81c-3.99,4.05-7.91,8.1-11.71,12.13-4.23,4.46-8.22,8.78-12,12.95-7.98-9.02-14.95-18.44-20.87-28.06,7.66-7.4,16.26-14.89,25.71-22.35,5.38,8.7,11.69,17.2,18.88,25.33ZM627.49,451.98c8.79-8.82,17.88-17.6,26.96-26.06,5.69,6.03,11.99,11.78,18.85,17.14l-22.61,30c-8.48-6.59-16.24-13.66-23.21-21.08ZM678.2,446.75c7.07,5.13,14.34,9.61,21.73,13.43-5.63,11.06-11.56,22.22-17.62,33.09-9.08-4.67-18.03-10.18-26.72-16.53l22.61-30ZM705.4,462.88c7.71,3.63,15.5,6.54,23.24,8.74-3.64,12.4-7.69,24.16-12.02,35.2-9.59-2.68-19.25-6.3-28.83-10.84,6.05-10.88,11.98-22.04,17.61-33.1ZM734.39,473.13c7.46,1.78,14.83,2.9,22.03,3.34-1.59,12.36-3.87,24.41-6.77,35.9-8.83-.46-17.94-1.82-27.15-4.03,4.33-11.24,8.32-23.04,11.89-35.22ZM736.06,467.31c3.36-12.04,6.31-24.42,8.78-36.96,4.83,1.1,9.6,1.8,14.28,2.11.06,12.76-.62,25.52-1.99,38.02-6.86-.41-13.92-1.46-21.07-3.17ZM765.34,432.65c4.43-.04,8.74-.44,12.87-1.24,2.51,12.56,4.05,25.05,4.65,37.32-6.17,1.31-12.7,1.94-19.46,1.94,1.38-12.63,2.02-25.35,1.94-38.03ZM784.16,429.97c3.65-1.08,7.1-2.49,10.34-4.22,4.39,11.57,7.7,23.23,9.89,34.8-4.76,2.79-9.95,5-15.47,6.64-.67-12.25-2.25-24.7-4.76-37.21ZM799.89,422.41c2.69-1.92,5.17-4.1,7.4-6.56,5.49,9.8,10.07,20.09,13.51,30.56-3.15,3.95-6.74,7.44-10.75,10.42-2.28-11.21-5.64-22.74-10.17-34.42ZM785.9,376.4c.42-.69.82-1.4,1.17-2.13,8.07,6.31,16.33,14.4,23.9,23.56-.85,2.44-1.9,4.78-3.18,6.99-6.44-10.29-13.82-19.89-21.9-28.42ZM787.53,349.34c-.52-1.49-1.12-2.97-1.81-4.45,6.15-.18,12.07.5,17.33,1.94,1.63,2.84,3.07,5.73,4.34,8.65-6.01-2.72-12.66-4.85-19.86-6.14ZM720.63,313.66c-.8.33-1.57.71-2.32,1.11-9.08-6.9-18.26-12.48-27.35-16.9,2.57-1.17,5.28-2.12,8.11-2.87,6.96,4.76,14.2,10.86,21.57,18.66ZM713.01,318.45c-.6.54-1.18,1.11-1.73,1.72-10.44-5.41-21.7-9.86-33.36-13.21,1.79-1.85,3.75-3.5,5.85-4.98,10.89,4.75,20.95,10.46,29.24,16.48ZM671.29,305.18c-10.61-2.63-21.46-4.36-32.25-5.05,3.07-3.33,6.52-6.29,10.31-8.86,9.4,1.72,18.85,4.51,27.88,8.01-2.15,1.77-4.13,3.73-5.94,5.89ZM661.41,325.5c-.78,3.57-1.2,7.28-1.23,11.12-12.69,1.04-25.06,2.95-37,5.67.05-5.76.74-11.36,2.11-16.7,11.71-1.08,23.8-1.11,36.12-.09ZM617.44,349.98c.55,6.62,1.83,13.37,3.83,20.16-7.09,3.05-14.06,6.33-20.88,9.86-4.01,2.08-7.93,4.22-11.75,6.42-2.44-8.39-3.95-16.73-4.45-24.85,10.48-4.67,21.61-8.56,33.24-11.6ZM583.29,389.61c-9.83,5.96-18.89,12.3-27.04,18.87-2.76-9.43-4.45-18.79-5.02-27.9,5.97-4.42,12.52-8.59,19.62-12.45,2.45-1.33,4.95-2.61,7.49-3.84.7,8.31,2.37,16.8,4.95,25.32ZM585.27,395.65c3.03,8.58,6.97,17.16,11.78,25.58-9.32,7.27-17.97,14.69-25.82,22.14-5.38-9.45-9.73-19.05-13-28.63,8.14-6.7,17.23-13.1,27.04-19.09ZM566.75,447.73c-7.11,7.04-13.48,14.09-18.94,21.04-5.59-9.91-10.09-19.99-13.43-30.02,5.32-6.78,11.69-13.42,18.94-19.81,3.45,9.66,7.95,19.32,13.44,28.8ZM570.03,453.2c6.05,9.7,13.13,19.19,21.2,28.27-7.04,7.93-13.23,15.29-18.57,22.11-8.21-9.33-15.38-19.07-21.46-29.02,5.28-6.88,11.58-14.05,18.82-21.35ZM573.19,513.22c8.42,8.97,17.8,17.52,28.06,25.46l-12.67,16.82c-9.94-7.7-19.05-16.03-27.23-24.82,3.18-5.36,7.21-11.25,11.84-17.45ZM593.46,559.18l12.67-16.82c10.48,7.69,21.29,14.36,32.25,20-4.68,6.16-9.23,11.66-13.51,16.19-10.72-5.44-21.26-11.91-31.42-19.37ZM609.84,537.46l17.51-23.24c10.09,7.4,20.49,13.82,31.05,19.25-5.4,8.42-10.91,16.54-16.31,23.93-10.96-5.58-21.78-12.24-32.26-19.93ZM631.03,509.33l20.87-27.7c8.91,6.51,18.09,12.17,27.41,16.97-2.73,4.83-5.48,9.59-8.23,14.25-3.05,5.16-6.2,10.35-9.41,15.46-10.41-5.33-20.68-11.67-30.64-18.97ZM676.36,515.95c2.82-4.78,5.64-9.67,8.45-14.63,9.8,4.67,19.71,8.39,29.55,11.17-4.56,11.13-9.4,21.47-14.4,30.88-10.89-3.03-21.86-7.15-32.74-12.34,3.15-5.06,6.21-10.12,9.14-15.07ZM720.26,514.04c9.42,2.3,18.75,3.73,27.83,4.28-3.05,11.08-6.7,21.58-10.89,31.25-10.11-.5-20.53-2.03-31.1-4.59,5-9.6,9.75-19.97,14.16-30.94ZM756.48,512.57c-.15,0-.31-.01-.47-.01,1.06-4.28,2.05-8.63,2.94-13.06,1.52-7.53,2.75-15.14,3.73-22.79.26,0,.53.02.79.02,6.8,0,13.37-.64,19.64-1.89.28,12.01-.39,23.76-1.98,35.12-7.81,1.73-16.07,2.62-24.65,2.62ZM811.28,463.42c4.26-2.87,8.14-6.24,11.62-10.05,2.64,9.5,4.3,19.08,4.82,28.5-4.05,5.2-8.72,9.74-13.94,13.61.15-10.26-.65-20.99-2.5-32.06ZM811.33,410.7c1.57-2.32,2.91-4.76,4.04-7.32,5.85,7.71,11.13,16.01,15.37,24.57-1.42,4.35-3.32,8.48-5.67,12.35-3.63-10.17-8.28-20.12-13.74-29.6ZM818,395.75c.75-2.95,1.22-6.02,1.45-9.17,6.3,6.1,11,12.25,14.49,18.13.13,4.72-.16,9.31-.89,13.73-4.02-7.57-9-15.21-15.05-22.68ZM839.54,416.39c2.24,5.99,3.34,11.39,3.83,15.74.06,3.61-.09,7.15-.44,10.61-1.44-5.03-3.29-10.21-5.59-15.47,1-3.52,1.75-7.15,2.21-10.89ZM824.25,365.85c-2.63-2.15-5.52-4.18-8.65-6.06-1.1-3.23-2.39-6.43-3.89-9.59,2.92,1.55,5.41,3.41,7.34,5.54,1.9,3.33,3.63,6.7,5.2,10.11ZM807.06,341.62c-2.49-4.1-5.3-8.09-8.42-11.93.64.16,1.25.37,1.81.66,3.72,4.09,7.17,8.31,10.33,12.65-1.2-.5-2.44-.96-3.72-1.38ZM793.16,323.44c-3.03-3.22-6.29-6.31-9.74-9.24,3.56,2.93,6.99,5.99,10.27,9.17-.17.02-.35.05-.53.07ZM760.22,298.64c-.03-.18-.05-.36-.08-.54,3.42,1.96,6.77,4.07,10.08,6.29-3.29-2.11-6.63-4.02-10-5.75ZM771.56,312.7l-6.44,8.55c-1.91-1.3-3.85-2.48-5.82-3.53.71-4.35,1.19-8.35,1.31-11.95,3.71,2.06,7.37,4.38,10.96,6.94ZM770.96,304.88c.43.29.86.57,1.29.87-.43-.29-.86-.59-1.29-.87ZM753.53,315.01c-1.75-.71-3.52-1.32-5.27-1.84-1.13-5.43-2.83-10.55-5-15.17,3.75,1.29,7.5,2.82,11.23,4.61.16,3.68-.27,7.96-.95,12.4ZM741.64,311.66c-1.62-.26-3.23-.43-4.81-.52-3.23-6.57-7.11-12.39-11.39-17.41,3.15.42,6.35,1.04,9.57,1.84,2.83,4.65,5.11,10.14,6.63,16.1ZM695.75,279.06c4.64,1.8,9.45,4.52,14.12,8.11-3.28.23-6.46.68-9.54,1.34-5.85-3.8-11.52-6.74-16.94-8.95,3.99-.41,8.11-.58,12.36-.49ZM692.34,290.78c-2.96,1.07-5.79,2.36-8.45,3.89-8.88-3.77-17.61-6.46-26.03-8.24,4.04-1.91,8.37-3.46,12.95-4.64,6.65,1.73,13.89,4.57,21.53,8.98ZM627.08,305.83c-2.7,4.39-4.84,9.05-6.43,13.94-11.17,1.27-21.73,3.47-31.56,6.44,2.28-6.08,5.38-11.83,9.26-17.16,9.2-2.09,18.86-3.14,28.73-3.23ZM579.94,335.91c-1.49,7.01-2.13,14.32-1.95,21.8-3.42,1.61-6.79,3.26-10.06,5.04-6.02,3.27-11.66,6.76-16.92,10.44.04-8.31,1.06-16.37,3.1-24.04,7.67-5.13,16.33-9.58,25.82-13.25ZM545.04,377.6c-6.67,5.16-12.59,10.65-17.7,16.37.27-8.16,1.46-16.06,3.63-23.59,4.38-5.67,9.65-10.96,15.71-15.79-1.37,7.42-1.91,15.12-1.64,23.01ZM545.54,385.01c.88,9.08,2.79,18.35,5.68,27.66-7.21,6.2-13.59,12.58-19.01,19.04-2.68-9.59-4.29-19.1-4.77-28.36,5-6.41,11.07-12.55,18.1-18.33ZM527.65,437.5c-.4.54-.82,1.08-1.21,1.62-3.61,5.03-6.56,10.06-8.91,15.05-2.17-8.43-3.48-16.81-3.87-25.05,1.86-6.13,4.68-12.17,8.37-18.05.98,8.7,2.87,17.55,5.62,26.44ZM530.05,444.65c3.56,9.85,8.17,19.69,13.78,29.36-4.4,6.06-8.08,12.01-10.97,17.81-5.19-9.31-9.42-18.79-12.57-28.28,2.14-6.18,5.41-12.51,9.76-18.88ZM529.77,498.65c-1.27,3.22-2.25,6.31-2.9,9.27-3.78-7.3-6.89-14.74-9.28-22.22-.47-3.73-.42-7.58.12-11.53,3.28,8.24,7.33,16.44,12.06,24.48ZM554.21,546.46c.71-2.95,2.09-6.37,4.03-10.17,8.06,8.52,16.98,16.6,26.66,24.09l-6.33,8.4c-8.86-6.88-17.02-14.38-24.36-22.32ZM617.85,592.76c2.63-1.85,5.36-4.15,8.17-6.83,10.18,4.91,20.49,8.93,30.78,12.04-3.71,2.43-7.29,4.12-10.7,5.07-9.46-2.54-18.92-5.98-28.25-10.28ZM647.75,560.15c5.48-7.52,10.94-15.66,16.2-23.92,10.96,5.26,22.04,9.45,33.04,12.59-5.03,8.99-10.18,17.02-15.34,23.99-11.27-3.1-22.63-7.33-33.9-12.66ZM741.13,555.72c1.11.02,2.23.08,3.33.08,8.56,0,16.87-.75,24.82-2.22-3.61,8.34-7.83,15.85-12.6,22.42-9.05,2.1-18.64,3.21-28.61,3.27,4.72-6.99,9.1-14.9,13.08-23.55ZM779.13,545.02c2.08-6.04,3.88-12.41,5.36-19.07.81-3.65,1.48-7.36,2.08-11.1,7.24-1.9,14.07-4.53,20.4-7.9-.9,10.13-2.81,19.67-5.62,28.46-6.8,4.08-14.25,7.28-22.22,9.62ZM813.49,503.11c5.26-3.43,10.07-7.45,14.37-12.03-.21,8.23-1.35,16.27-3.57,23.94-4.35,5.71-9.39,10.69-14.99,14.99,2.17-8.42,3.59-17.43,4.18-26.9ZM827.51,447.7c2.7-3.74,4.96-7.73,6.79-11.93,2.85,6.91,4.94,13.9,6.06,20.79-1.71,6.16-4.14,11.98-7.26,17.36-1.02-8.73-2.93-17.52-5.59-26.21ZM751.63,293.58c.42.46.79.98,1.11,1.55-4.59-1.95-9.2-3.56-13.79-4.81-.77-1.15-1.58-2.23-2.41-3.27,2.1.77,4.19,1.57,6.28,2.45,2.96,1.26,5.9,2.64,8.81,4.09ZM548.01,338.52c1.84-2.26,3.82-4.36,5.87-6.36-2.02,4.24-3.68,8.64-5,13.18-4.19,2.93-8.09,6.06-11.67,9.34,2.09-4.02,4.5-7.89,7.28-11.57.25-.33.42-.69.51-1.07.73-.97,1.48-1.92,2.23-2.87.28-.17.55-.38.77-.65ZM518.87,392.38c.28-.3.53-.65.67-1.07.68-1.99,1.46-3.94,2.33-5.88-.56,5.2-.74,10.51-.56,15.9-2.69,3.61-5.09,7.29-7.14,11.04.16-1.44.35-2.87.57-4.29,1.12-5.3,2.5-10.54,4.13-15.71ZM513.88,463.47c-.33,1.05-.63,2.1-.9,3.15-.05-.32-.1-.64-.15-.96-.44-3.15-.79-6.31-1.05-9.46.63,2.42,1.33,4.84,2.1,7.27ZM680.27,608.2c-7.89-.23-15.94-1.17-24.04-2.79,2.66-1.44,5.36-3.23,8.1-5.34,9.06,2.34,18.06,3.96,26.91,4.85-3.62,1.6-7.28,2.7-10.97,3.28ZM670.1,595.23c4.77-4.38,9.48-9.56,14.08-15.45,10.84,2.72,21.57,4.45,32.02,5.16-4.92,5.94-10.1,10.83-15.45,14.58-9.99-.41-20.27-1.86-30.65-4.29ZM722.51,586.88c.41-.52.82-1.08,1.23-1.62,1.11.02,2.21.04,3.31.04,8.16,0,16.08-.68,23.7-1.97-4.63,5.18-9.67,9.55-15.05,13.04-8.03,1.9-16.47,2.96-25.18,3.2,4.14-3.62,8.15-7.84,11.99-12.69ZM810.69,542.27c-.33.2-.64.46-.88.79-2.74,3.63-5.77,6.96-9.02,10.05,2.16-4.33,4.07-8.91,5.72-13.73,3.99-2.52,7.78-5.31,11.3-8.42-1.37,2.55-2.86,5.05-4.53,7.47-.19.28-.32.57-.41.88-.71.99-1.44,1.98-2.18,2.96ZM833.34,499.96c.55-5.27.72-10.62.52-16.04,2.77-3.77,5.18-7.78,7.23-12-.1,1.32-.25,2.63-.45,3.92-.47,2.29-.99,4.57-1.55,6.83,0,.03-.02.06-.03.09-.02.11-.06.22-.08.34-.22.72-.43,1.45-.69,2.16-.14.38-.19.78-.18,1.16-.53,1.92-1.08,3.84-1.68,5.74-.91,2.66-1.93,5.26-3.09,7.79ZM700.71,607.25c-.3.04-.59.07-.89.11.92-.54,1.84-1.11,2.75-1.71,1.41.04,2.82.06,4.22.06,1.07,0,2.14-.02,3.21-.04-3.07.61-6.16,1.14-9.28,1.58Z"/>
</svg>