<?xml version="1.0" encoding="UTF-8"?>
<svg id="Text" xmlns="http://www.w3.org/2000/svg" viewBox="0 0 1353.38 1000">
  <defs>
    <style>
      .cls-1 {
        fill: #231f20;
      }
    </style>
  </defs>
  <path class="cls-1" d="M722.81,357.43c-225.24,0-401.68,58.69-401.68,133.61s176.44,133.62,401.68,133.62,401.68-58.69,401.68-133.62-176.44-133.61-401.68-133.61ZM373.38,491.04c0-8.83,2.98-17.53,8.54-25.97h55.05c-3.55,8.43-5.43,17.11-5.43,25.97s1.88,17.55,5.43,25.97h-55.05c-5.56-8.45-8.54-17.14-8.54-25.97ZM1071.85,491.04c0,8.83-2.99,17.53-8.54,25.97h-55.05c3.55-8.43,5.43-17.11,5.43-25.97s-1.88-17.55-5.43-25.97h55.05c5.56,8.45,8.54,17.14,8.54,25.97ZM444.04,491.04c0-8.83,2.37-17.53,6.77-25.97h70.86c-2.53,8.43-3.87,17.11-3.87,25.97s1.34,17.54,3.87,25.97h-70.86c-4.41-8.44-6.77-17.14-6.77-25.97ZM1001.18,491.04c0,8.83-2.37,17.53-6.77,25.97h-70.86c2.53-8.43,3.87-17.11,3.87-25.97s-1.34-17.54-3.87-25.97h70.86c4.41,8.44,6.77,17.14,6.77,25.97ZM777.95,606.18c8.47-6.09,16.15-13.46,22.87-21.93h44.19c-18.38,9.53-39.78,17.05-63.52,21.93h-3.53ZM728.87,606.18v-21.93h55.41c-9.18,9.54-19.88,17.06-31.75,21.93h-23.66ZM692.7,606.18c-11.87-4.86-22.57-12.38-31.75-21.93h55.41v21.93h-23.67ZM663.75,606.18c-23.74-4.87-45.14-12.39-63.52-21.93h44.19c6.72,8.47,14.4,15.84,22.87,21.93h-3.53ZM530.32,491.04c0-8.88,1.56-17.57,4.49-25.97h80.91c-1.35,8.44-2.13,17.11-2.13,25.97s.78,17.53,2.14,25.97h-80.91c-2.93-8.4-4.49-17.09-4.49-25.97ZM667.26,375.91c-8.46,6.09-16.14,13.46-22.85,21.92h-44.19c18.38-9.53,39.79-17.05,63.53-21.92h3.51ZM716.36,375.91v21.92h-55.43c9.19-9.55,19.9-17.06,31.79-21.92h23.64ZM752.51,375.91c11.89,4.86,22.6,12.38,31.79,21.92h-55.43v-21.92h23.64ZM781.48,375.91c23.74,4.87,45.15,12.39,63.53,21.92h-44.18c-6.72-8.46-14.39-15.84-22.85-21.92h3.5ZM914.91,491.04c0,8.88-1.57,17.57-4.49,25.97h-80.91c1.35-8.44,2.14-17.11,2.14-25.97s-.78-17.53-2.13-25.97h80.91c2.93,8.4,4.49,17.09,4.49,25.97ZM728.87,571.75v-42.23h85.31c-4.16,15.7-10.87,30.03-19.56,42.23h-65.74ZM650.61,571.75c-8.69-12.2-15.4-26.53-19.56-42.23h85.31v42.23h-65.75ZM626.09,491.04c0-8.89.82-17.57,2.28-25.97h87.99v51.94h-87.99c-1.46-8.41-2.28-17.08-2.28-25.97ZM716.36,410.34v42.23h-85.32c4.16-15.71,10.86-30.03,19.56-42.23h65.77ZM794.63,410.34c8.69,12.2,15.39,26.52,19.56,42.23h-85.32v-42.23h65.76ZM819.13,491.04c0,8.89-.82,17.57-2.28,25.97h-87.99v-51.94h87.99c1.45,8.4,2.28,17.08,2.28,25.97ZM826.99,529.52h77.95c-8.36,15.68-21.75,30.03-39.19,42.23h-56.21c7.78-12.6,13.7-26.87,17.45-42.23ZM827,452.57c-3.74-15.36-9.66-29.64-17.43-42.23h56.19c17.43,12.2,30.82,26.55,39.18,42.23h-77.94ZM635.66,410.34c-7.77,12.6-13.69,26.87-17.43,42.23h-77.94c8.36-15.68,21.75-30.03,39.18-42.23h56.19ZM618.23,529.52c3.74,15.36,9.67,29.63,17.45,42.23h-56.21c-17.43-12.2-30.82-26.55-39.19-42.23h77.95ZM839.07,600.95c11.01-4.94,21.18-10.53,30.4-16.69h29.79c-18.22,6.6-38.38,12.25-60.19,16.69ZM932.11,584.26h11.42c-9.07,2.61-18.49,5.08-28.31,7.38,5.86-2.36,11.49-4.82,16.89-7.38ZM885.98,571.75c14.63-12.58,25.8-26.86,32.83-42.23h67.42c-12.34,15.59-31.92,29.98-57.17,42.23h-43.08ZM918.82,452.57c-7.03-15.37-18.2-29.65-32.83-42.23h43.07c25.25,12.26,44.83,26.64,57.17,42.23h-67.42ZM869.47,397.83c-9.22-6.16-19.38-11.75-30.39-16.68,21.8,4.44,41.97,10.09,60.18,16.68h-29.78ZM915.21,390.45c9.82,2.3,19.25,4.77,28.32,7.38h-11.43c-5.4-2.56-11.04-5.02-16.9-7.38ZM530.02,390.45c-5.86,2.36-11.49,4.82-16.9,7.38h-11.43c9.07-2.61,18.5-5.09,28.32-7.38ZM606.15,381.14c-11.01,4.94-21.18,10.53-30.39,16.68h-29.78c18.21-6.6,38.38-12.25,60.18-16.68ZM559.24,410.34c-14.63,12.58-25.8,26.86-32.83,42.23h-67.42c12.34-15.59,31.92-29.98,57.17-42.23h43.07ZM526.41,529.52c7.03,15.37,18.2,29.65,32.83,42.23h-43.08c-25.25-12.25-44.83-26.64-57.17-42.23h67.42ZM575.77,584.26c9.22,6.16,19.38,11.75,30.4,16.69-21.81-4.44-41.97-10.09-60.19-16.69h29.79ZM530.01,591.64c-9.82-2.3-19.24-4.77-28.31-7.38h11.42c5.4,2.56,11.03,5.02,16.89,7.38ZM955.4,571.75c20.6-12.58,36.33-26.85,46.22-42.23h51.39c-15.54,15.58-40.19,29.97-71.97,42.23h-25.64ZM1001.61,452.57c-9.89-15.38-25.62-29.65-46.22-42.23h25.64c31.78,12.26,56.43,26.65,71.97,42.23h-51.4ZM1016.18,412.45c32.62,11.71,58.3,25.32,74.83,40.12h-21.65c-11.6-14.52-29.65-28.06-53.18-40.12ZM375.87,452.57h-21.26c16.31-14.6,41.54-28.03,73.53-39.64-23.08,11.93-40.83,25.3-52.27,39.64ZM464.19,410.34h25.64c-20.6,12.58-36.33,26.85-46.22,42.23h-51.4c15.54-15.59,40.19-29.97,71.97-42.23ZM443.62,529.52c9.89,15.38,25.61,29.65,46.22,42.23h-25.64c-31.78-12.26-56.43-26.65-71.97-42.23h51.39ZM428.15,569.17c-32-11.61-57.24-25.04-73.55-39.64h21.26c11.45,14.34,29.2,27.71,52.28,39.64ZM1069.36,529.52h21.65c-16.53,14.8-42.22,28.41-74.85,40.12,23.53-12.05,41.59-25.59,53.19-40.12ZM1077.6,517.02c4.41-8.42,6.75-17.11,6.75-25.97s-2.34-17.55-6.75-25.97h24.93c6.16,8.4,9.45,17.09,9.45,25.97s-3.29,17.58-9.45,25.97h-24.93ZM333.63,491.04c0-8.88,3.29-17.57,9.45-25.97h24.53c-4.41,8.42-6.75,17.11-6.75,25.97s2.34,17.55,6.75,25.97h-24.53c-6.16-8.4-9.45-17.09-9.45-25.97Z"/>
</svg>