<svg width="439" height="363" viewBox="0 0 439 363" fill="none" xmlns="http://www.w3.org/2000/svg">
<g clip-path="url(#clip0_523_4954)">
<path d="M58.5699 362.39C39.8199 362.39 22.3999 351.86 14.1899 335.56C2.99991 313.35 1.78991 290.17 0.60991 267.76C0.44991 264.66 0.27991 261.56 0.0899099 258.46C-0.56009 247.84 2.04991 237.34 7.39991 228.41C6.40991 224.17 6.71991 219.59 8.56991 215.28L52.7199 112.12C55.3299 106.02 60.5899 101.62 66.8199 100.03C100.19 41.43 148.78 17.87 176.07 8.85L176.69 8.56L177.62 8.34C191.79 3.8 201.73 2.52 204.2 2.26C205.81 2.02 207.5 1.79 209.35 1.57L209.87 1.51C218.14 0.51 226.48 0 234.67 0C330.48 0 388.07 67.32 392.53 72.71C420.14 104.31 435.85 142.77 437.97 183.95C439.57 215.22 432.77 237.27 432.48 238.19L432.43 238.36C403.93 325.43 354.31 358.59 352.22 359.96L348.48 362.4H58.5699V362.39Z" fill="#FF3D00"/>
<path d="M229.58 144.361H194.83C180.32 144.361 165.88 142.241 151.98 138.071L73.7902 114.611C70.8502 113.731 67.7302 115.191 66.5202 118.011L22.3702 221.171C20.6302 225.221 23.6102 229.731 28.0202 229.731H174.89C184.35 229.731 193.7 227.641 202.26 223.611L260.94 195.981" stroke="#231F20" stroke-width="7" stroke-linecap="round" stroke-linejoin="round"/>
<path d="M25.13 229.73C18.02 237.17 14.44 247.25 15.07 257.53C16.56 281.78 16.37 306.53 27.59 328.81C33.42 340.39 45.61 347.39 58.57 347.39H343.99C343.99 347.39 390.96 316.74 418.15 233.69C418.15 233.69 443.36 153.52 381.07 82.4104C381.07 82.4104 314.82 0.840369 206.06 17.1504C206.06 17.1504 122.23 24.8704 75.65 115.17" stroke="#231F20" stroke-width="7" stroke-linecap="round" stroke-linejoin="round"/>
<path d="M266.46 171.179C268.524 161.985 262.744 152.86 253.551 150.797C244.357 148.733 235.232 154.513 233.169 163.707C231.105 172.9 236.885 182.025 246.079 184.089C255.272 186.152 264.397 180.372 266.46 171.179Z" stroke="#231F20" stroke-width="7" stroke-linecap="round" stroke-linejoin="round"/>
<path d="M249.82 198.14C266.775 198.14 280.52 184.395 280.52 167.44C280.52 150.485 266.775 136.74 249.82 136.74C232.865 136.74 219.12 150.485 219.12 167.44C219.12 184.395 232.865 198.14 249.82 198.14Z" stroke="#231F20" stroke-width="7" stroke-linecap="round" stroke-linejoin="round"/>
<path d="M181.6 22.8304C161.9 32.9204 157.19 44.5604 157.19 44.5604C155.63 47.0504 157.99 50.1404 160.8 49.2904L188.42 40.8804C196.51 38.4204 203.77 33.4804 208.44 26.4304C210.68 23.0404 212.24 19.4304 211.65 16.4004" stroke="#231F20" stroke-width="7" stroke-linecap="round" stroke-linejoin="round"/>
<path d="M229.63 239.04C229.63 242.54 226.79 245.38 223.29 245.38C219.79 245.38 216.95 242.54 216.95 239.04C216.95 235.54 219.79 232.7 223.29 232.7C226.79 232.7 229.63 235.54 229.63 239.04Z" stroke="#231F20" stroke-width="7" stroke-linecap="round" stroke-linejoin="round"/>
<path d="M196.21 217.26C202.363 217.26 207.35 212.273 207.35 206.12C207.35 199.968 202.363 194.98 196.21 194.98C190.058 194.98 185.07 199.968 185.07 206.12C185.07 212.273 190.058 217.26 196.21 217.26Z" stroke="#231F20" stroke-width="7" stroke-linecap="round" stroke-linejoin="round"/>
<path d="M128.74 131.101L83.4702 229.731" stroke="#231F20" stroke-width="7" stroke-linecap="round" stroke-linejoin="round"/>
<path d="M94.39 120.801L45.23 229.731" stroke="#231F20" stroke-width="7" stroke-linecap="round" stroke-linejoin="round"/>
<path d="M157.14 241.871L140.03 237.131C134.2 235.181 128.17 239.521 128.17 245.671C128.17 252.181 134.86 256.531 140.81 253.911L157.43 247.891C160.13 246.701 159.95 242.821 157.15 241.881L157.14 241.871Z" stroke="#231F20" stroke-width="7" stroke-linecap="round" stroke-linejoin="round"/>
<path d="M16.8398 280.441H201.84C233.91 280.441 262.84 262.671 277.33 234.061C296.68 195.891 335.29 172.181 378.08 172.181H420.24" stroke="#231F20" stroke-width="7" stroke-linecap="round" stroke-linejoin="round"/>
<path d="M422.47 195.36H378.08C344.06 195.36 313.38 214.2 298 244.55C279.53 280.98 242.69 303.62 201.83 303.62H20.5601" stroke="#231F20" stroke-width="7" stroke-linecap="round" stroke-linejoin="round"/>
</g>
<defs>
<clipPath id="clip0_523_4954">
<rect width="438.2" height="362.39" fill="white"/>
</clipPath>
</defs>
</svg>
