<?xml version="1.0" encoding="UTF-8"?>
<svg id="Text" xmlns="http://www.w3.org/2000/svg" viewBox="0 0 1353.38 1000">
  <defs>
    <style>
      .cls-1 {
        fill: #231f20;
      }
    </style>
  </defs>
  <rect class="cls-1" x="97.09" y="355.48" width="72.26" height="72.26"/>
  <polygon class="cls-1" points="241.61 500 241.61 427.74 169.35 427.74 169.35 500 97.19 500 97.19 572.26 169.45 572.26 169.45 500 241.61 500"/>
  <rect class="cls-1" x="241.61" y="355.48" width="72.26" height="72.26"/>
  <polygon class="cls-1" points="386.14 500 386.14 427.74 313.87 427.74 313.87 500 241.71 500 241.71 572.26 313.98 572.26 313.98 500 386.14 500"/>
  <rect class="cls-1" x="386.14" y="355.48" width="72.26" height="72.26"/>
  <polygon class="cls-1" points="530.66 500 530.66 427.74 458.4 427.74 458.4 500 386.24 500 386.24 572.26 458.5 572.26 458.5 500 530.66 500"/>
  <rect class="cls-1" x="530.66" y="355.48" width="72.26" height="72.26"/>
  <polygon class="cls-1" points="675.19 500 675.19 427.74 602.92 427.74 602.92 500 530.76 500 530.76 572.26 603.03 572.26 603.03 500 675.19 500"/>
  <rect class="cls-1" x="675.19" y="355.48" width="72.26" height="72.26"/>
  <polygon class="cls-1" points="819.71 500 819.71 427.74 747.45 427.74 747.45 500 675.29 500 675.29 572.26 747.55 572.26 747.55 500 819.71 500"/>
  <rect class="cls-1" x="819.71" y="355.48" width="72.26" height="72.26"/>
  <polygon class="cls-1" points="964.24 500 964.24 427.74 891.97 427.74 891.97 500 819.81 500 819.81 572.26 892.08 572.26 892.08 500 964.24 500"/>
  <rect class="cls-1" x="964.24" y="355.48" width="72.26" height="72.26"/>
  <polygon class="cls-1" points="1108.76 500 1108.76 427.74 1036.5 427.74 1036.5 500 964.34 500 964.34 572.26 1036.6 572.26 1036.6 500 1108.76 500"/>
  <rect class="cls-1" x="1108.76" y="355.48" width="72.26" height="72.26"/>
  <rect class="cls-1" x="169.45" y="572.26" width="72.26" height="72.26"/>
  <rect class="cls-1" x="313.98" y="572.26" width="72.26" height="72.26"/>
  <rect class="cls-1" x="458.5" y="572.26" width="72.26" height="72.26"/>
  <rect class="cls-1" x="603.03" y="572.26" width="72.26" height="72.26"/>
  <rect class="cls-1" x="747.55" y="572.26" width="72.26" height="72.26"/>
  <rect class="cls-1" x="892.08" y="572.26" width="72.26" height="72.26"/>
  <rect class="cls-1" x="1036.6" y="572.26" width="72.26" height="72.26"/>
  <polygon class="cls-1" points="1253.28 500 1253.28 427.74 1181.02 427.74 1181.02 500 1108.86 500 1108.86 572.26 1181.02 572.26 1181.02 644.52 1253.28 644.52 1253.28 572.26 1181.12 572.26 1181.12 500 1253.28 500"/>
</svg>