<?xml version="1.0" encoding="UTF-8"?>
<svg id="Text" xmlns="http://www.w3.org/2000/svg" viewBox="0 0 1353.38 1000">
  <defs>
    <style>
      .cls-1 {
        fill: none;
        stroke: #6c41bf;
        stroke-linecap: round;
        stroke-linejoin: round;
        stroke-width: 3.69px;
      }

      .cls-2 {
        fill: #231f20;
      }
    </style>
  </defs>
  <rect class="cls-1" x="613.85" y="326.03" width="130.28" height="347.95"/>
  <line class="cls-1" x1="591.41" y1="673.97" x2="761.97" y2="673.97"/>
  <path class="cls-2" d="M722.81,477.83h-37.46v-96.05c0-10.45-8.5-18.96-18.96-18.96h-31.33v-8.5h31.33c15.14,0,27.46,12.32,27.46,27.46v87.55h28.96v8.5Z"/>
  <path class="cls-2" d="M678.21,477.83h-43.14v-8.5h34.64v-89.91c0-.74-.6-1.34-1.34-1.34h-33.3v-8.5h33.3c5.43,0,9.84,4.42,9.84,9.84v98.41Z"/>
  <rect class="cls-2" x="635.07" y="482.74" width="87.74" height="8.5"/>
  <rect class="cls-2" x="634.46" y="592.49" width="11.13" height="11.13"/>
  <rect class="cls-2" x="634.46" y="570.23" width="11.13" height="11.13"/>
  <rect class="cls-2" x="645.59" y="581.36" width="11.13" height="11.13"/>
  <rect class="cls-2" x="656.73" y="570.23" width="11.13" height="11.13"/>
  <rect class="cls-2" x="645.59" y="603.62" width="11.13" height="11.13"/>
  <rect class="cls-2" x="656.73" y="592.49" width="11.13" height="11.13"/>
  <rect class="cls-2" x="667.86" y="581.36" width="11.13" height="11.13"/>
  <rect class="cls-2" x="678.99" y="570.23" width="11.13" height="11.13"/>
  <rect class="cls-2" x="634.46" y="614.75" width="11.13" height="11.13"/>
  <rect class="cls-2" x="645.59" y="559.09" width="11.13" height="11.13"/>
  <rect class="cls-2" x="667.86" y="559.09" width="11.13" height="11.13"/>
  <rect class="cls-2" x="690.12" y="559.09" width="11.13" height="11.13"/>
  <rect class="cls-2" x="634.46" y="547.96" width="11.13" height="11.13"/>
  <rect class="cls-2" x="656.73" y="547.96" width="11.13" height="11.13"/>
  <rect class="cls-2" x="678.99" y="547.96" width="11.13" height="11.13"/>
  <rect class="cls-2" x="701.26" y="547.96" width="11.13" height="11.13"/>
  <rect class="cls-2" x="656.73" y="614.75" width="11.13" height="11.13"/>
  <rect class="cls-2" x="667.86" y="603.62" width="11.13" height="11.13"/>
  <rect class="cls-2" x="678.99" y="592.49" width="11.13" height="11.13"/>
  <rect class="cls-2" x="690.12" y="581.36" width="11.13" height="11.13"/>
  <rect class="cls-2" x="645.59" y="625.89" width="11.13" height="11.13"/>
  <rect class="cls-2" x="701.26" y="570.23" width="11.13" height="11.13"/>
  <rect class="cls-2" x="712.39" y="559.09" width="11.13" height="11.13"/>
  <rect class="cls-2" x="634.46" y="637.02" width="11.13" height="11.13"/>
</svg>