<svg width="1920" height="1041" viewBox="0 0 1920 1041" fill="none" xmlns="http://www.w3.org/2000/svg">
<g id="WEBSITE">
<rect width="1920" height="1041" fill="none"/>
<g id="Group 10">
<path id="Vector" d="M610.629 672.912L769.199 753.082L835.269 786.382C845.729 791.632 856.299 796.192 865.349 803.692C876.239 812.762 885.709 823.412 893.419 835.292C901.279 847.412 907.589 860.672 916.679 871.982C925.389 882.802 937.879 891.282 951.839 892.842C988.909 896.022 1006.53 856.452 1041.65 852.212C1051.9 850.982 1062.26 851.362 1072.38 853.352C1083.63 855.552 1094.24 860.722 1105.02 864.432C1117.96 868.882 1132.37 875.022 1146.13 875.422C1158.59 875.762 1170.76 871.312 1180.47 863.562C1192.25 854.222 1205.4 846.172 1220.14 842.572C1231.94 839.712 1244.67 838.912 1256.79 838.462L1324.4 834.272C1352.34 832.322 1380.32 829.782 1408.01 825.672C1435.42 821.622 1463.17 812.412 1489.43 803.812C1504.57 798.852 1519.17 793.072 1534.08 787.482C1548.48 781.022 1562.44 772.022 1569.5 757.232C1579.48 736.372 1577.25 715.232 1574.94 693.092C1573.2 676.342 1571.47 659.582 1569.73 642.832C1568.69 632.872 1567.84 622.902 1566.62 612.962C1563.06 584.302 1559.46 555.622 1555.84 526.962C1552.34 499.382 1550.29 471.512 1545.74 444.122C1544.79 438.382 1543.64 432.662 1542.22 427.032C1533.3 391.782 1511.1 363.972 1483.23 341.482C1462.15 324.472 1436.67 313.562 1412.27 302.082C1401.59 297.042 1390.83 292.152 1380.16 287.102C1380.16 287.102 1345.65 269.332 1326.15 296.502C1316.22 310.332 1317.59 329.862 1328.31 342.852C1340.7 357.852 1363.35 358.232 1381.22 357.402C1382.62 357.342 1384.02 357.252 1385.39 357.152C1400.26 356.092 1412.65 361.012 1420.91 373.592C1437.54 398.922 1426.29 427.032 1407.33 447.072L1278.04 597.292L1131.31 770.162C1121.71 781.452 1109.09 786.792 1094.39 785.712C1066.83 783.662 1039.68 777.722 1013.77 768.112C1004.64 764.722 992.079 762.012 988.579 751.522C985.359 741.902 990.909 733.542 999.909 730.422C1010.82 726.652 1022.21 722.602 1033.31 718.732C1044.07 714.982 1056.08 712.272 1066.33 707.272C1081.77 699.712 1072.43 682.152 1064.78 672.742C1051.01 655.842 1037.2 638.982 1023.35 622.142C1015.03 612.042 1006.7 601.932 998.379 591.812C985.249 575.862 972.539 559.552 967.139 539.262C961.949 519.792 965.419 502.062 967.649 482.602C969.979 462.312 971.039 441.912 971.459 421.492C971.649 411.112 970.699 400.332 966.399 390.732C962.039 381.032 952.459 373.552 943.839 367.642C943.139 367.172 942.419 366.692 941.719 366.222L733.289 216.022L681.009 178.722C669.279 170.332 650.739 174.952 637.899 178.612C619.319 183.932 601.379 194.502 587.609 207.992C580.109 215.322 570.259 223.012 568.269 234.172C565.999 246.822 578.079 256.262 586.849 263.252C591.869 267.232 596.359 272.252 595.049 279.312C593.819 285.792 587.999 290.662 583.459 294.962C575.619 302.462 566.919 308.942 559.139 316.502C549.689 325.712 539.989 334.672 530.539 343.892C511.649 362.302 492.709 380.772 471.969 397.102C469.069 399.392 466.119 401.632 463.139 403.842C452.129 412.022 440.519 419.372 428.399 425.812C427.209 426.422 426.029 427.042 424.839 427.632C411.389 435.022 394.929 440.252 383.599 450.762C373.669 459.972 366.949 472.582 365.599 486.112C364.389 498.042 364.799 510.322 368.819 521.722C372.949 533.432 379.859 540.642 389.509 548.202C407.869 562.652 428.549 575.022 448.479 587.262C473.239 602.492 498.639 616.412 524.609 629.392C550.389 642.162 575.659 656.802 601.969 668.492L610.609 672.922L610.629 672.912Z" stroke="#231F20" stroke-width="12.33" stroke-linecap="round" stroke-linejoin="round"/>
<ellipse id="Ellipse 2" cx="1149" cy="747.5" rx="26" ry="26.5" fill="#FF3D00"/>
<ellipse id="Ellipse 9" cx="971" cy="531.5" rx="26" ry="26.5" fill="#FF3D00"/>
<path id="2" d="M970.087 519.619C971.662 519.619 973.016 519.866 974.149 520.358C975.306 520.826 976.204 521.503 976.845 522.389C977.485 523.275 977.805 524.334 977.805 525.565C977.805 526.476 977.62 527.374 977.251 528.26C976.881 529.147 976.291 530.057 975.478 530.993C974.69 531.928 973.632 532.962 972.303 534.095L966.8 538.711H978.469L978.949 541H962.923V538.895L970.715 532.101C971.699 531.264 972.499 530.513 973.115 529.848C973.73 529.183 974.186 528.531 974.481 527.891C974.801 527.251 974.961 526.574 974.961 525.86C974.961 524.605 974.506 523.657 973.595 523.017C972.709 522.352 971.527 522.02 970.05 522.02C969.164 522.02 968.364 522.13 967.65 522.352C966.936 522.549 966.296 522.795 965.73 523.091C965.188 523.386 964.696 523.657 964.253 523.903L963.403 521.54C964.093 521.121 964.966 520.703 966.025 520.284C967.108 519.841 968.462 519.619 970.087 519.619Z" fill="black"/>
<circle id="Ellipse 8" cx="676.5" cy="174.5" r="26.5" fill="#FF3D00"/>
<circle id="Ellipse 7" cx="370.5" cy="526.5" r="26.5" fill="#FF3D00"/>
<circle id="Ellipse 6" cx="894.5" cy="837.5" r="26.5" fill="#FF3D00"/>
<circle id="Ellipse 5" cx="1415" cy="828" r="26" fill="#FF3D00"/>
<circle id="Ellipse 4" cx="1548.5" cy="465.5" r="26.5" fill="#FF3D00"/>
<circle id="Ellipse 3" cx="1329.5" cy="534.5" r="26.5" fill="#FF3D00"/>
<path id="4" d="M1338.61 539.015L1338.28 541.415H1334.77V546.548H1331.82V541.415H1320.78L1320.37 539.015L1332.7 522.915H1334.77V539.015H1338.61ZM1331.82 528.048L1323.51 539.015H1331.82V528.048Z" fill="black"/>
<path id="1" d="M679.825 184H676.908V166.497L672.662 168.491L671.369 166.164L677.868 163.1H679.825V184Z" fill="black"/>
<path id="3" d="M1147.83 735.619C1149.48 735.619 1150.86 735.915 1151.96 736.506C1153.07 737.072 1153.9 737.823 1154.44 738.758C1155 739.669 1155.29 740.654 1155.29 741.712C1155.29 742.574 1155.1 743.362 1154.73 744.076C1154.36 744.79 1153.88 745.405 1153.29 745.922C1152.73 746.439 1152.09 746.821 1151.37 747.067C1152.19 747.239 1152.91 747.596 1153.55 748.138C1154.22 748.679 1154.75 749.368 1155.14 750.205C1155.53 751.018 1155.73 751.929 1155.73 752.938C1155.73 754.243 1155.37 755.412 1154.66 756.446C1153.97 757.48 1153 758.292 1151.74 758.883C1150.49 759.499 1149 759.806 1147.27 759.806C1145.9 759.806 1144.57 759.585 1143.29 759.142C1142.01 758.723 1140.91 758.268 1140 757.775L1141.51 755.744C1142.4 756.286 1143.27 756.705 1144.14 757C1145.02 757.271 1146.11 757.406 1147.39 757.406C1148.3 757.406 1149.16 757.234 1149.97 756.889C1150.81 756.545 1151.48 756.04 1152 755.375C1152.54 754.711 1152.81 753.923 1152.81 753.012C1152.81 751.559 1152.27 750.402 1151.19 749.541C1150.13 748.655 1148.39 748.211 1145.98 748.211H1145.1L1144.62 746.033H1146.2C1148.12 746.033 1149.63 745.639 1150.71 744.851C1151.82 744.063 1152.37 743.042 1152.37 741.786C1152.37 741.097 1152.17 740.469 1151.78 739.903C1151.41 739.337 1150.88 738.881 1150.19 738.537C1149.5 738.192 1148.68 738.02 1147.72 738.02C1146.44 738.02 1145.29 738.229 1144.28 738.647C1143.3 739.041 1142.51 739.448 1141.92 739.866L1140.48 737.909C1141.49 737.269 1142.6 736.727 1143.8 736.284C1145.01 735.841 1146.35 735.619 1147.83 735.619Z" fill="black"/>
<path id="5" d="M1544.32 467.728H1541.51L1542.1 455.1H1554.69L1554.36 457.537H1544.76L1544.43 464.737C1545.02 464.368 1545.65 464.085 1546.31 463.888C1546.98 463.667 1547.63 463.556 1548.27 463.556C1550.09 463.556 1551.57 463.9 1552.7 464.59C1553.86 465.279 1554.71 466.19 1555.25 467.322C1555.81 468.455 1556.1 469.698 1556.1 471.052C1556.1 472.455 1555.75 473.747 1555.06 474.929C1554.4 476.111 1553.43 477.046 1552.15 477.736C1550.87 478.449 1549.29 478.806 1547.42 478.806C1546.53 478.806 1545.65 478.708 1544.76 478.511C1543.9 478.314 1543.07 478.056 1542.29 477.736C1541.52 477.416 1540.83 477.095 1540.22 476.775L1541.7 474.744C1542.58 475.261 1543.46 475.668 1544.32 475.963C1545.2 476.234 1546.29 476.369 1547.57 476.369C1549.24 476.369 1550.59 475.902 1551.63 474.966C1552.66 474.006 1553.18 472.701 1553.18 471.052C1553.18 469.427 1552.74 468.172 1551.85 467.285C1550.96 466.399 1549.82 465.956 1548.42 465.956C1547.46 465.956 1546.61 466.178 1545.87 466.621C1545.15 467.039 1544.64 467.408 1544.32 467.728Z" fill="black"/>
<path id="6" d="M1407.55 827.476C1408.09 826.885 1408.7 826.307 1409.39 825.74C1410.08 825.174 1410.86 824.694 1411.72 824.3C1412.61 823.906 1413.62 823.709 1414.75 823.709C1416.42 823.709 1417.85 824.042 1419.03 824.706C1420.21 825.346 1421.11 826.22 1421.73 827.328C1422.34 828.411 1422.65 829.63 1422.65 830.984C1422.65 832.412 1422.32 833.692 1421.65 834.824C1420.99 835.957 1420.05 836.855 1418.85 837.52C1417.67 838.16 1416.32 838.48 1414.82 838.48C1413.2 838.48 1411.73 838.098 1410.43 837.335C1409.12 836.572 1408.09 835.452 1407.33 833.975C1406.59 832.498 1406.22 830.689 1406.22 828.547C1406.22 826.848 1406.48 825.31 1406.99 823.931C1407.51 822.528 1408.22 821.285 1409.14 820.201C1410.07 819.118 1411.11 818.183 1412.24 817.395C1413.39 816.607 1414.59 815.979 1415.82 815.512C1417.08 815.044 1418.29 814.736 1419.48 814.589L1420.14 816.878C1419.18 816.976 1418.18 817.223 1417.15 817.616C1416.14 817.986 1415.14 818.478 1414.16 819.094C1413.2 819.684 1412.34 820.435 1411.57 821.346C1410.81 822.232 1410.19 823.242 1409.73 824.374C1409.28 825.506 1409.06 826.787 1409.06 828.214C1409.06 829.938 1409.3 831.378 1409.76 832.535C1410.23 833.692 1410.88 834.566 1411.72 835.157C1412.58 835.747 1413.58 836.043 1414.71 836.043C1415.79 836.043 1416.72 835.821 1417.48 835.378C1418.24 834.91 1418.84 834.32 1419.25 833.606C1419.67 832.867 1419.88 832.055 1419.88 831.169C1419.88 830.159 1419.67 829.273 1419.25 828.51C1418.84 827.722 1418.24 827.119 1417.48 826.7C1416.72 826.282 1415.79 826.073 1414.71 826.073C1413.85 826.073 1413.01 826.245 1412.2 826.59C1411.41 826.91 1410.69 827.341 1410.02 827.882C1409.38 828.424 1408.82 828.99 1408.32 829.581L1407.55 827.476Z" fill="black"/>
<path id="7" d="M893.348 849.548L890.579 848.662L898.26 828.537H886.739L886.369 826.1H900.549L901.509 827.392L893.348 849.548Z" fill="black"/>
<path id="8" d="M370.527 512.256C372.127 512.256 373.469 512.539 374.552 513.105C375.635 513.672 376.46 514.423 377.026 515.358C377.592 516.293 377.875 517.303 377.875 518.386C377.875 519.174 377.691 519.9 377.322 520.565C376.952 521.229 376.472 521.808 375.881 522.3C375.315 522.793 374.712 523.186 374.072 523.482C374.909 523.679 375.684 524.073 376.398 524.664C377.137 525.254 377.728 525.981 378.171 526.842C378.639 527.704 378.872 528.627 378.872 529.612C378.872 530.843 378.552 531.975 377.912 533.009C377.272 534.043 376.337 534.88 375.106 535.52C373.875 536.16 372.349 536.48 370.527 536.48C368.755 536.48 367.241 536.172 365.985 535.557C364.73 534.917 363.782 534.08 363.142 533.046C362.526 532.012 362.219 530.867 362.219 529.612C362.219 528.725 362.44 527.852 362.883 526.99C363.326 526.128 363.905 525.377 364.619 524.737C365.357 524.097 366.157 523.679 367.019 523.482C365.936 523.039 365.025 522.374 364.286 521.488C363.573 520.602 363.216 519.568 363.216 518.386C363.216 517.303 363.499 516.306 364.065 515.395C364.631 514.459 365.456 513.709 366.539 513.142C367.622 512.552 368.952 512.256 370.527 512.256ZM370.453 514.619C369.493 514.619 368.681 514.804 368.016 515.173C367.351 515.518 366.847 515.986 366.502 516.577C366.182 517.143 366.022 517.758 366.022 518.423C366.022 519.383 366.404 520.245 367.167 521.008C367.955 521.771 369.075 522.263 370.527 522.485C371.487 522.337 372.3 522.066 372.964 521.672C373.654 521.279 374.17 520.799 374.515 520.232C374.86 519.642 375.032 519.038 375.032 518.423C375.032 517.389 374.651 516.503 373.887 515.764C373.124 515.001 371.98 514.619 370.453 514.619ZM370.527 524.59C368.705 524.836 367.327 525.439 366.391 526.399C365.48 527.335 365.025 528.43 365.025 529.686C365.025 530.572 365.271 531.347 365.764 532.012C366.256 532.652 366.921 533.157 367.758 533.526C368.595 533.895 369.518 534.08 370.527 534.08C371.512 534.08 372.423 533.907 373.26 533.563C374.097 533.194 374.761 532.677 375.254 532.012C375.746 531.347 375.992 530.572 375.992 529.686C375.992 528.43 375.537 527.335 374.626 526.399C373.715 525.439 372.349 524.836 370.527 524.59Z" fill="black"/>
</g>
</g>
</svg>
