<?xml version="1.0" encoding="UTF-8"?>
<svg id="Text" xmlns="http://www.w3.org/2000/svg" viewBox="0 0 1353.38 1000">
  <defs>
    <style>
      .cls-1 {
        fill: none;
        stroke: #231f20;
        stroke-linecap: round;
        stroke-linejoin: round;
        stroke-width: 12.33px;
      }
    </style>
  </defs>
  <path class="cls-1" d="M316.36,639.4l158.57,80.17,66.07,33.3c10.46,5.25,21.03,9.81,30.08,17.31,10.89,9.07,20.36,19.72,28.07,31.6,7.86,12.12,14.17,25.38,23.26,36.69,8.71,10.82,21.2,19.3,35.16,20.86,37.07,3.18,54.69-36.39,89.81-40.63,10.25-1.23,20.61-.85,30.73,1.14,11.25,2.2,21.86,7.37,32.64,11.08,12.94,4.45,27.35,10.59,41.11,10.99,12.46.34,24.63-4.11,34.34-11.86,11.78-9.34,24.93-17.39,39.67-20.99,11.8-2.86,24.53-3.66,36.65-4.11l67.61-4.19c27.94-1.95,55.92-4.49,83.61-8.6,27.41-4.05,55.16-13.26,81.42-21.86,15.14-4.96,29.74-10.74,44.65-16.33,14.4-6.46,28.36-15.46,35.42-30.25,9.98-20.86,7.75-42,5.44-64.14-1.74-16.75-3.47-33.51-5.21-50.26-1.04-9.96-1.89-19.93-3.11-29.87-3.56-28.66-7.16-57.34-10.78-86-3.5-27.58-5.55-55.45-10.1-82.84-.95-5.74-2.1-11.46-3.52-17.09-8.92-35.25-31.12-63.06-58.99-85.55-21.08-17.01-46.56-27.92-70.96-39.4-10.68-5.04-21.44-9.93-32.11-14.98,0,0-34.51-17.77-54.01,9.4-9.93,13.83-8.56,33.36,2.16,46.35,12.39,15,35.04,15.38,52.91,14.55,1.4-.06,2.8-.15,4.17-.25,14.87-1.06,27.26,3.86,35.52,16.44,16.63,25.33,5.38,53.44-13.58,73.48l-129.29,150.22-146.73,172.87c-9.6,11.29-22.22,16.63-36.92,15.55-27.56-2.05-54.71-7.99-80.62-17.6-9.13-3.39-21.69-6.1-25.19-16.59-3.22-9.62,2.33-17.98,11.33-21.1,10.91-3.77,22.3-7.82,33.4-11.69,10.76-3.75,22.77-6.46,33.02-11.46,15.44-7.56,6.1-25.12-1.55-34.53-13.77-16.9-27.58-33.76-41.43-50.6-8.32-10.1-16.65-20.21-24.97-30.33-13.13-15.95-25.84-32.26-31.24-52.55-5.19-19.47-1.72-37.2.51-56.66,2.33-20.29,3.39-40.69,3.81-61.11.19-10.38-.76-21.16-5.06-30.76-4.36-9.7-13.94-17.18-22.56-23.09-.7-.47-1.42-.95-2.12-1.42l-208.43-150.2-52.28-37.3c-11.73-8.39-30.27-3.77-43.11-.11-18.58,5.32-36.52,15.89-50.29,29.38-7.5,7.33-17.35,15.02-19.34,26.18-2.27,12.65,9.81,22.09,18.58,29.08,5.02,3.98,9.51,9,8.2,16.06-1.23,6.48-7.05,11.35-11.59,15.65-7.84,7.5-16.54,13.98-24.32,21.54-9.45,9.21-19.15,18.17-28.6,27.39-18.89,18.41-37.83,36.88-58.57,53.21-2.9,2.29-5.85,4.53-8.83,6.74-11.01,8.18-22.62,15.53-34.74,21.97-1.19.61-2.37,1.23-3.56,1.82-13.45,7.39-29.91,12.62-41.24,23.13-9.93,9.21-16.65,21.82-18,35.35-1.21,11.93-.8,24.21,3.22,35.61,4.13,11.71,11.04,18.92,20.69,26.48,18.36,14.45,39.04,26.82,58.97,39.06,24.76,15.23,50.16,29.15,76.13,42.13,25.78,12.77,51.05,27.41,77.36,39.1l8.64,4.43Z"/>
</svg>