<?xml version="1.0" encoding="UTF-8"?>
<svg id="Text" xmlns="http://www.w3.org/2000/svg" viewBox="0 0 1353.38 1000">
  <defs>
    <style>
      .cls-1 {
        fill: #231f20;
      }
    </style>
  </defs>
  <path class="cls-1" d="M523.55,584.61h0c-8.58,0-15.87-5.59-18.14-13.91-11.32-41.47-31.23-97.32-61.73-127.84-30.52-30.5-86.37-50.41-127.84-61.73-8.32-2.27-13.9-9.56-13.91-18.15,0-8.58,5.59-15.88,13.9-18.15,41.44-11.32,97.24-31.21,127.74-61.69,30.55-30.54,50.49-86.44,61.84-127.96,2.27-8.31,9.56-13.9,18.14-13.9,8.58,0,15.87,5.58,18.15,13.9,11.34,41.48,31.27,97.34,61.79,127.86,30.52,30.52,86.37,50.45,127.85,61.79,8.31,2.27,13.9,9.57,13.9,18.15,0,8.58-5.59,15.87-13.9,18.14-41.52,11.34-97.42,31.28-127.95,61.84-30.48,30.5-50.37,86.3-61.69,127.74-2.27,8.32-9.56,13.9-18.15,13.9ZM523.55,157.97c-1.6,0-1.93,1.21-2.04,1.61-11.88,43.47-33,102.24-66.14,135.37-33.09,33.07-91.76,54.13-135.14,65.98-.4.11-1.61.44-1.61,2.04s1.21,1.93,1.61,2.04c43.43,11.86,102.14,32.94,135.25,66.03,33.1,33.11,54.18,91.83,66.04,135.25.11.4.44,1.61,2.04,1.61h0c1.61,0,1.94-1.21,2.04-1.61,11.85-43.39,32.92-102.05,65.98-135.14,33.12-33.15,91.89-54.27,135.36-66.15.4-.11,1.61-.44,1.61-2.04s-1.21-1.93-1.61-2.04c-43.43-11.88-102.14-32.98-135.25-66.09h0c-33.11-33.11-54.22-91.83-66.09-135.26-.11-.4-.44-1.61-2.04-1.61Z"/>
  <path class="cls-1" d="M795.93,721.28h0c-8.19,0-15.17-5.03-17.8-12.8-7.17-21.25-15.85-37.38-25.09-46.62-9.24-9.24-25.36-17.92-46.62-25.09-7.78-2.63-12.8-9.61-12.8-17.8,0-8.19,5.02-15.17,12.8-17.8,21.23-7.17,37.34-15.84,46.58-25.07,9.26-9.26,17.96-25.4,25.15-46.69,2.63-7.78,9.61-12.8,17.79-12.8,8.18,0,15.17,5.02,17.8,12.8,7.19,21.26,15.87,37.4,25.12,46.65,9.25,9.25,25.38,17.94,46.64,25.12,7.78,2.63,12.8,9.61,12.8,17.8,0,8.18-5.03,15.17-12.8,17.79-21.29,7.19-37.43,15.89-46.69,25.15-9.23,9.24-17.9,25.34-25.07,46.57-2.63,7.78-9.61,12.8-17.8,12.8ZM795.93,533.29c-.99,0-1.66.49-1.98,1.45-8.12,24.05-17.93,41.94-29.16,53.16-11.2,11.19-29.04,20.98-53.03,29.08-.96.33-1.45.99-1.45,1.98s.49,1.66,1.45,1.98c24.02,8.11,41.88,17.9,53.09,29.11,11.21,11.21,21,29.07,29.11,53.09.32.96.99,1.45,1.98,1.45h0c.99,0,1.66-.49,1.98-1.45,8.1-23.98,17.88-41.82,29.08-53.03,11.22-11.23,29.11-21.04,53.16-29.17.96-.33,1.45-.99,1.45-1.98s-.49-1.66-1.45-1.98c-24.02-8.12-41.89-17.92-53.1-29.13h0c-11.21-11.21-21.01-29.08-29.13-53.11-.33-.96-.99-1.45-1.98-1.45Z"/>
  <path class="cls-1" d="M956.36,465.3c-8.19,0-15.17-5.03-17.8-12.8-7.18-21.26-15.85-37.38-25.09-46.62-9.24-9.24-25.36-17.92-46.62-25.09-7.78-2.63-12.8-9.61-12.8-17.8s5.03-15.17,12.8-17.8c21.23-7.17,37.33-15.84,46.57-25.07,9.26-9.25,17.96-25.4,25.15-46.69,2.63-7.78,9.61-12.8,17.8-12.8s15.17,5.02,17.8,12.8c7.19,21.27,15.87,37.4,25.12,46.65h0c9.25,9.25,25.38,17.93,46.64,25.12,7.78,2.63,12.8,9.61,12.8,17.8,0,8.19-5.03,15.17-12.8,17.79-21.29,7.19-37.43,15.89-46.69,25.15-9.23,9.24-17.9,25.34-25.07,46.57-2.63,7.78-9.61,12.8-17.8,12.8ZM956.36,277.31c-.99,0-1.66.49-1.98,1.45-8.12,24.05-17.94,41.94-29.16,53.16-11.2,11.19-29.04,20.98-53.03,29.08-.96.33-1.45.99-1.45,1.98s.49,1.66,1.45,1.98c24.01,8.11,41.87,17.9,53.08,29.11,11.21,11.21,21,29.07,29.11,53.09.32.96.99,1.45,1.98,1.45s1.66-.49,1.98-1.45c8.1-23.99,17.89-41.83,29.08-53.03,11.22-11.23,29.1-21.04,53.16-29.17.96-.33,1.45-.99,1.45-1.98s-.49-1.66-1.45-1.98c-24.02-8.12-41.89-17.92-53.1-29.13h0s0,0,0,0c-11.21-11.21-21.02-29.08-29.14-53.1-.33-.96-.99-1.45-1.98-1.45Z"/>
</svg>