<?xml version="1.0" encoding="UTF-8"?>
<svg id="Text" xmlns="http://www.w3.org/2000/svg" viewBox="0 0 1353.38 1000">
  <defs>
    <style>
      .cls-1 {
        fill: none;
        stroke: #231f20;
        stroke-linecap: round;
        stroke-linejoin: round;
        stroke-width: 3.69px;
      }
    </style>
  </defs>
  <path class="cls-1" d="M475.61,640.29c-7.03,0-13.84-3.75-17.43-10.36-.93-1.71-22.63-42.39-16.23-86.19,2.05-14.01,5.85-23.79,9.21-32.42,4.23-10.87,7.63-18.05,6.56-32.6-.81-10.93,6.79-20.5,17.72-21.24,10.85-.74,20.44,7.4,21.24,18.33,1.73,23.5-3.73,37.53-8.55,49.9-2.85,7.31-5.53,14.22-6.93,23.78-4.46,30.51,11.72,61.29,11.89,61.6,5.15,9.65,1.53,21.66-8.09,26.84-3,1.61-6.23,2.38-9.4,2.38Z"/>
  <circle class="cls-1" cx="477.38" cy="484.87" r="11.47"/>
  <circle class="cls-1" cx="465.91" cy="530.5" r="11.47"/>
  <circle class="cls-1" cx="461.73" cy="573.31" r="11.47"/>
  <circle class="cls-1" cx="473.2" cy="613.78" r="11.47"/>
  <path class="cls-1" d="M392.16,573.31s10.88,43.11,28.28,72.05h0c5.92,8.77,4.03,20.62-4.33,27.11l-2.69,2.09c-9.04,7.01-22.06,5.09-28.69-4.23-8.5-11.97-19.79-29.85-29.25-51.68,0,0-12.14-27.52-12.77-49.32"/>
  <path class="cls-1" d="M450.26,490.53s-.01.04-.02.06l-.96,1.2c-2.75,3.43-6.9,5.42-11.3,5.42h0c-3.09,0-6.08,1.1-8.44,3.1l-.12.1c-4.49,3.81-10.2,5.91-16.09,5.91h-8.58c-4.85,0-8.67-4.14-8.27-8.98l4.5-54.5c.58-7.02,6.45-12.42,13.49-12.42h7.92c4.39,0,8.54,1.99,11.28,5.41l13.63,16.98c2.38,2.96,3.63,6.67,3.55,10.47l-.61,27.24Z"/>
  <ellipse class="cls-1" cx="420.3" cy="408.55" rx="22.15" ry="14.6"/>
  <circle class="cls-1" cx="485.96" cy="424.92" r="4.6"/>
  <path class="cls-1" d="M490.54,433.67c.25,2.53-1.59,4.79-4.12,5.04-2.53.25-4.79-1.59-5.04-4.12-.25-2.53,1.59-4.79,4.12-5.04s4.79,1.59,5.04,4.12Z"/>
  <path class="cls-1" d="M490.44,444.42c-.6,2.47-3.08,3.99-5.56,3.4-2.47-.6-3.99-3.08-3.4-5.56.6-2.47,3.08-3.99,5.56-3.4,2.47.6,3.99,3.08,3.4,5.56Z"/>
  <path class="cls-1" d="M449.57,456.64h-7.2c-2.72,0-4.92,2.2-4.92,4.92v23.35c0,2.33,1.89,4.21,4.21,4.21h8.64"/>
  <line class="cls-1" x1="450.29" y1="466.96" x2="437.44" y2="467.11"/>
  <line class="cls-1" x1="450.29" y1="477.38" x2="437.7" y2="477.38"/>
  <path class="cls-1" d="M374.21,419.22l2.47.76,15.43,4.73c2.91.89,4.41,4.1,3.22,6.91l-1.69,3.99c-1.04,2.45-3.78,3.71-6.31,2.88l-15.4-5-2.44-.79c-2.89-.94-4.34-4.17-3.11-6.96l1.63-3.68c1.05-2.38,3.71-3.59,6.2-2.83Z"/>
  <line class="cls-1" x1="377.76" y1="420.31" x2="373.24" y2="432.87"/>
  <line class="cls-1" x1="386.25" y1="423.75" x2="381.92" y2="435.78"/>
  <path class="cls-1" d="M425.24,503.28c-8.64,15.75-2.99,46.65,2.12,60.24"/>
  <path class="cls-1" d="M409.62,506.32c-1.26,3.62-2.11,7.09-2.64,10.52-1.16,7.61-.74,15.09.36,23.88.59,4.71,4.48,8.32,9.21,8.7l6.98.56"/>
  <line class="cls-1" x1="421.24" y1="517.17" x2="408.71" y2="517.17"/>
  <line class="cls-1" x1="419.73" y1="528.15" x2="407.2" y2="528.15"/>
  <line class="cls-1" x1="420.77" y1="538.6" x2="408.23" y2="538.6"/>
  <rect class="cls-1" x="508.88" y="395.62" width="14.82" height="9.29" rx="4.04" ry="4.04"/>
  <rect class="cls-1" x="523.71" y="395.62" width="14.82" height="9.29" rx="4.04" ry="4.04"/>
  <rect class="cls-1" x="538.53" y="395.62" width="14.82" height="9.29" rx="4.04" ry="4.04"/>
  <rect class="cls-1" x="553.36" y="395.62" width="14.82" height="9.29" rx="4.04" ry="4.04"/>
  <rect class="cls-1" x="568.18" y="395.57" width="14.82" height="9.29" rx="4.04" ry="4.04"/>
  <rect class="cls-1" x="583" y="395.57" width="14.82" height="9.29" rx="4.04" ry="4.04"/>
  <rect class="cls-1" x="597.83" y="395.57" width="14.82" height="9.29" rx="4.04" ry="4.04"/>
  <rect class="cls-1" x="612.65" y="395.57" width="14.82" height="9.29" rx="4.04" ry="4.04"/>
  <rect class="cls-1" x="508.36" y="414.04" width="209.66" height="121.43" rx="11.34" ry="11.34"/>
  <path class="cls-1" d="M471.44,414.04c0,5.36-4.35,9.71-9.71,9.71s-9.71-4.35-9.71-9.71,4.35-9.71,9.71-9.71c3.97,0,7.38,2.38,8.89,5.78.53,1.2.83,2.53.83,3.93Z"/>
  <path class="cls-1" d="M555.87,582.24c5.34,7.55,4.86,17.51-.48,24.5l-22.78-32.19c8.37-2.71,17.92.14,23.26,7.69Z"/>
  <path class="cls-1" d="M522.62,581.62l22.78,32.19c-8.42,2.75-17.92-.14-23.26-7.69-5.34-7.55-4.91-17.48.48-24.5Z"/>
  <path class="cls-1" d="M532.08,573.81l23.83,33.68c1.97,2.78,1.32,6.6-1.42,8.53-2.78,1.97-6.6,1.31-8.57-1.47l-23.83-33.68c-1.97-2.78-1.32-6.6,1.47-8.57,2.73-1.93,6.55-1.28,8.52,1.5Z"/>
  <path class="cls-1" d="M630.06,594.21c5.34,7.55,4.86,17.51-.48,24.5l-22.78-32.19c8.37-2.71,17.92.14,23.26,7.69Z"/>
  <path class="cls-1" d="M596.81,593.58l22.78,32.19c-8.42,2.75-17.92-.14-23.26-7.69-5.34-7.55-4.91-17.48.48-24.5Z"/>
  <path class="cls-1" d="M606.27,585.77l23.83,33.68c1.97,2.78,1.32,6.6-1.42,8.53-2.78,1.97-6.6,1.31-8.57-1.47l-23.83-33.68c-1.97-2.78-1.32-6.6,1.47-8.57,2.73-1.93,6.55-1.28,8.52,1.5Z"/>
  <circle class="cls-1" cx="613.19" cy="606.14" r="44.05"/>
  <line class="cls-1" x1="569.14" y1="602.31" x2="592.69" y2="603.74"/>
  <line class="cls-1" x1="572.07" y1="621.96" x2="593.99" y2="613.78"/>
  <line class="cls-1" x1="606.06" y1="625.52" x2="596.59" y2="646.95"/>
  <line class="cls-1" x1="613.19" y1="626.79" x2="613.19" y2="650.19"/>
  <line class="cls-1" x1="631.24" y1="624.11" x2="644.59" y2="637.03"/>
  <line class="cls-1" x1="631.24" y1="596.1" x2="652.74" y2="586.72"/>
  <path class="cls-1" d="M495.38,621.96c1.49-3.02,2.23-6.49,2.81-9.79,1.67-9.36,1.25-19.19,5.09-28.06,3.31-7.63,9.01-14.24,16.16-18.51,5.24-3.13,11.29-4.88,17.4-4.99,10.55-.2,20.64,4.54,27.3,12.71,3.29,4.03,6.21,9.31,8.23,16.22"/>
  <path class="cls-1" d="M477.38,640.29c.85,2.85,3.68,4.86,6.25,6.02,8.51,3.81,18.47,1.63,27.17-.25,17.35-3.75,35.02-2.88,52.64-3.04,8.44-.08,16.88-.15,25.31-.23"/>
  <path class="cls-1" d="M340.26,467.11s9.66,25.77,30.36,15.59c4.53-2.23,8.18-5.85,11.01-10.03,4.42-6.54,12.68-17.89,18.64-20.89"/>
  <polyline class="cls-1" points="543.94 561.24 613.19 562.09 613.19 585.51"/>
  <path class="cls-1" d="M750.61,640.24c7.03,0,13.84-3.75,17.43-10.36.93-1.71,22.63-42.39,16.23-86.19-2.05-14.01-5.85-23.79-9.21-32.42-4.23-10.87-7.63-18.05-6.56-32.6.81-10.93-6.79-20.5-17.72-21.24-10.85-.74-20.44,7.4-21.24,18.33-1.73,23.5,3.73,37.53,8.55,49.9,2.85,7.31,5.53,14.22,6.93,23.78,4.46,30.51-11.72,61.29-11.89,61.6-5.15,9.65-1.53,21.66,8.09,26.84,3,1.61,6.23,2.38,9.4,2.38Z"/>
  <circle class="cls-1" cx="748.85" cy="484.83" r="11.47"/>
  <circle class="cls-1" cx="760.31" cy="530.46" r="11.47"/>
  <circle class="cls-1" cx="764.5" cy="573.27" r="11.47"/>
  <circle class="cls-1" cx="753.03" cy="613.74" r="11.47"/>
  <path class="cls-1" d="M784.92,571.84s17.71-14.75,39.12-13.49c2.74.16,5.09,2.06,5.69,4.75l1.48,6.61c.6,2.69,3.18,4.43,5.89,3.95,10.07-1.77,33.66-5.49,48.62-4.24,1.18.1,3.2-34.09,3.27-36.05,1.52-43.97.83-94.91-33.7-127-18.48-17.17-44.49-21.15-68.59-23.79-56.09-6.14-112.36-4.07-168.66-5.02l-9.86.04c-56.3.94-112.57-1.12-168.66,5.02-24.09,2.64-50.1,6.62-68.59,23.79-34.53,32.09-35.22,83.02-33.7,127,.07,1.96,2.08,36.15,3.27,36.05,14.96-1.25,38.56,2.47,48.62,4.24,2.71.48,5.29-1.26,5.89-3.95l1.48-6.61c.6-2.68,2.94-4.58,5.69-4.75,21.41-1.27,39.12,13.49,39.12,13.49"/>
  <path class="cls-1" d="M834.06,573.27s-10.88,43.11-28.28,72.05h0c-5.92,8.77-4.03,20.62,4.33,27.11l2.69,2.09c9.04,7.01,22.06,5.09,28.69-4.23,8.5-11.97,19.79-29.85,29.25-51.68,0,0,12.14-27.52,12.77-49.32"/>
  <path class="cls-1" d="M775.96,490.49s.01.04.02.06l.96,1.2c2.75,3.43,6.9,5.42,11.3,5.42h0c3.09,0,6.08,1.1,8.44,3.1l.12.1c4.49,3.81,10.2,5.91,16.09,5.91h8.58c4.85,0,8.67-4.14,8.27-8.98l-4.51-54.5c-.58-7.02-6.45-12.42-13.49-12.42h-7.92c-4.39,0-8.54,1.99-11.28,5.41l-13.63,16.98c-2.38,2.96-3.63,6.67-3.55,10.47l.61,27.24Z"/>
  <ellipse class="cls-1" cx="805.92" cy="408.51" rx="22.15" ry="14.6"/>
  <circle class="cls-1" cx="740.26" cy="424.88" r="4.6"/>
  <path class="cls-1" d="M735.68,433.62c-.25,2.53,1.59,4.79,4.12,5.04s4.79-1.59,5.04-4.12-1.59-4.79-4.12-5.04c-2.53-.25-4.79,1.59-5.04,4.12Z"/>
  <path class="cls-1" d="M735.79,444.37c.6,2.47,3.08,3.99,5.56,3.4,2.47-.6,3.99-3.08,3.4-5.56-.6-2.47-3.08-3.99-5.56-3.4-2.47.6-3.99,3.08-3.4,5.56Z"/>
  <path class="cls-1" d="M776.66,456.59h7.2c2.72,0,4.92,2.2,4.92,4.92v23.35c0,2.33-1.89,4.21-4.21,4.21h-8.64"/>
  <line class="cls-1" x1="775.93" y1="466.92" x2="788.78" y2="467.07"/>
  <line class="cls-1" x1="775.93" y1="477.34" x2="788.53" y2="477.34"/>
  <path class="cls-1" d="M852.01,419.18l-2.47.76-15.43,4.73c-2.91.89-4.41,4.1-3.22,6.91l1.69,3.98c1.04,2.45,3.78,3.71,6.31,2.88l15.4-5,2.44-.79c2.89-.94,4.34-4.17,3.11-6.96l-1.63-3.68c-1.05-2.38-3.71-3.59-6.2-2.83Z"/>
  <line class="cls-1" x1="848.47" y1="420.27" x2="853.07" y2="433.04"/>
  <line class="cls-1" x1="839.71" y1="422.96" x2="844.31" y2="435.73"/>
  <path class="cls-1" d="M800.98,503.24c8.64,15.75,2.99,46.65-2.12,60.24"/>
  <path class="cls-1" d="M816.61,506.28c1.26,3.62,2.11,7.09,2.64,10.52,1.16,7.61.74,15.09-.36,23.88-.59,4.71-4.48,8.32-9.21,8.7l-6.98.56"/>
  <line class="cls-1" x1="804.99" y1="517.13" x2="817.52" y2="517.13"/>
  <line class="cls-1" x1="806.5" y1="528.11" x2="819.03" y2="528.11"/>
  <line class="cls-1" x1="805.46" y1="538.56" x2="817.99" y2="538.56"/>
  <rect class="cls-1" x="702.52" y="395.58" width="14.82" height="9.29" rx="4.04" ry="4.04" transform="translate(1419.86 800.44) rotate(180)"/>
  <rect class="cls-1" x="687.69" y="395.58" width="14.82" height="9.29" rx="4.04" ry="4.04" transform="translate(1390.21 800.44) rotate(180)"/>
  <rect class="cls-1" x="672.87" y="395.58" width="14.82" height="9.29" rx="4.04" ry="4.04" transform="translate(1360.56 800.44) rotate(180)"/>
  <rect class="cls-1" x="658.04" y="395.58" width="14.82" height="9.29" rx="4.04" ry="4.04" transform="translate(1330.91 800.44) rotate(180)"/>
  <rect class="cls-1" x="643.22" y="395.53" width="14.82" height="9.29" rx="4.04" ry="4.04" transform="translate(1301.27 800.34) rotate(180)"/>
  <rect class="cls-1" x="628.4" y="395.53" width="14.82" height="9.29" rx="4.04" ry="4.04" transform="translate(1271.62 800.34) rotate(180)"/>
  <path class="cls-1" d="M754.78,414c0,5.37,4.35,9.71,9.71,9.71s9.71-4.35,9.71-9.71-4.35-9.71-9.71-9.71c-3.97,0-7.38,2.38-8.89,5.78-.53,1.2-.83,2.53-.83,3.93Z"/>
  <path class="cls-1" d="M755.61,410.07l-.64-.38c-4.01-2.35-8.57-3.58-13.21-3.58h0c-3.85,0-6.96-3.15-6.9-7.01h0c.11-7.18-5.66-13.07-12.84-13.12l-103.97-.72-9.86.04-103.97.72c-7.18.05-12.95,5.94-12.84,13.12h0c.06,3.85-3.05,7.01-6.9,7.01h0c-4.64,0-9.2,1.24-13.21,3.58l-.64.38"/>
  <path class="cls-1" d="M670.35,582.2c-5.34,7.55-4.86,17.51.48,24.5l22.78-32.19c-8.37-2.71-17.92.14-23.26,7.69Z"/>
  <path class="cls-1" d="M703.6,581.57l-22.78,32.19c8.42,2.75,17.92-.14,23.26-7.69,5.34-7.55,4.91-17.48-.48-24.5Z"/>
  <path class="cls-1" d="M694.14,573.76l-23.83,33.68c-1.97,2.78-1.32,6.6,1.42,8.53,2.78,1.97,6.6,1.31,8.57-1.47l23.83-33.68c1.97-2.78,1.31-6.6-1.47-8.57-2.73-1.93-6.55-1.28-8.52,1.5Z"/>
  <path class="cls-1" d="M730.85,621.92c-1.49-3.02-2.23-6.49-2.81-9.79-1.67-9.36-1.25-19.19-5.09-28.06-3.31-7.63-9.01-14.24-16.16-18.51-5.24-3.13-11.29-4.88-17.4-4.99-10.55-.2-20.64,4.54-27.3,12.71-3.29,4.03-6.21,9.31-8.23,16.22"/>
  <path class="cls-1" d="M748.85,640.24c-.85,2.85-3.68,4.86-6.25,6.02-8.51,3.81-18.47,1.63-27.17-.25-17.35-3.75-35.02-2.88-52.64-3.04-8.44-.08-16.88-.15-25.31-.23"/>
  <path class="cls-1" d="M885.97,467.07s-9.66,25.77-30.36,15.59c-4.53-2.23-8.18-5.85-11.01-10.03-4.42-6.54-12.68-17.89-18.64-20.89"/>
  <line class="cls-1" x1="682.29" y1="561.2" x2="613.03" y2="562.04"/>
</svg>