<?xml version="1.0" encoding="UTF-8"?>
<svg id="Text" xmlns="http://www.w3.org/2000/svg" viewBox="0 0 1353.38 1000">
  <defs>
    <style>
      .cls-1 {
        fill: none;
        stroke: #231f20;
        stroke-linecap: round;
        stroke-linejoin: round;
        stroke-width: 3.69px;
      }
    </style>
  </defs>
  <circle class="cls-1" cx="676.69" cy="509.23" r="172.48"/>
  <path class="cls-1" d="M809.71,525.31c5.84-1.06,11.69-2.04,17.53-3.02-.09-9.01-.88-27.02-.88-27.02l-17.24-3.46c-1.23-8.26-3.23-16.28-6.31-24.01,4.71-3.46,9.45-6.88,14.19-10.29-3.94-8.11-8.09-16.11-12.3-24.07-5.57,1.38-10.99,3.4-16.62,4.45,0,0-3.41-5.94-16.75-19.32l8.93-16.01-21.2-16.76c-4.85,4.14-9.69,8.3-14.54,12.44-6.98-3.94-14.28-7.28-21.8-10.02.13-6.34.12-12.69.35-19.04-8.72-2.2-17.6-3.59-26.31-5.85-2.41,5.94-4.8,11.89-7.29,17.8-8.37-.96-16.82-.54-25.2.18-2.58-6.01-4.91-12.13-7.55-18.12-8.65,2.36-17.58,3.49-26.25,5.78.27,6.77.45,13.54.44,20.3-7.09,2.71-13.94,6.01-20.48,9.85-5.21-4.7-10.64-9.13-15.9-13.77-7.16,5.49-14.34,10.98-21.28,16.75,3.49,6.05,6.77,12.23,10.19,18.31-5.44,5.62-10.36,11.71-14.79,18.16-6.57-2.03-13.21-3.78-19.83-5.69-4.21,7.98-8.3,16.02-12.34,24.07,5.67,4.13,11.33,8.26,17.05,12.34-2.49,7.08-4.03,14.44-5.35,21.82-7.09,1.19-14.19,2.35-21.25,3.69-.06,5.13-.12,10.27-.82,26.86,7.11,1.62,14.34,2.65,21.51,3.98,1.05,7.42,2.55,14.77,4.6,21.99-5.42,3.99-10.88,7.93-16.25,11.97,4.18,8.17,8.01,16.52,12.49,24.54,5.95-1.94,11.95-3.67,17.94-5.43,4.4,7.06,9.5,13.67,15.15,19.78-3.11,4.97-6.03,10.08-9.09,15.08,7.11,5.93,14.09,12.02,21.32,17.83,4.56-3.73,9.16-7.47,13.67-11.29,7.73,4.82,15.9,8.93,24.39,12.2-.27,5.41-.51,10.82-1.09,16.22,6.5,1.6,12.99,3.23,27.06,6.76,2.37-5.01,4.48-10.11,6.69-15.19,8.47.78,17,1.15,25.49.28,2.14,4.86,4.19,9.76,6.37,14.6,9.03-2.25,18.16-4.05,27.16-6.4-.3-5-.65-10-.84-15.02,8.92-3.15,17.5-7.19,25.6-12.09,4,3.38,8.04,6.69,12.04,10.05,7.33-5.69,14.26-11.89,21.4-17.81-2.63-4.26-5.14-8.6-7.81-12.83,6.37-6.39,11.79-13.64,16.78-21.11,4.98,1.6,9.98,3.15,15.02,4.54,4.15-8.13,8.21-16.31,12.22-24.49-4.38-3.32-8.98-6.33-13.23-9.78,1.91-8.17,4.09-16.33,4.96-24.71Z"/>
  <circle class="cls-1" cx="676.69" cy="509.23" r="104.26" transform="translate(25.61 1050.82) rotate(-76.72)"/>
  <circle class="cls-1" cx="676.69" cy="509.23" r="60.36" transform="translate(25.61 1050.82) rotate(-76.72)"/>
</svg>