<svg width="1920" height="1080" viewBox="0 0 1920 1080" fill="none" xmlns="http://www.w3.org/2000/svg">
<rect width="1920" height="1080" fill="#52493F"/>
<path d="M612.058 569.676L620.576 629.616L617.106 630.562C592.499 589.551 570.1 569.36 546.755 569.36C528.142 569.36 513.946 581.664 513.946 599.961C513.946 625.515 542.339 636.556 571.678 651.068C602.594 666.842 635.088 686.401 635.088 731.829C635.088 783.882 593.761 802.495 547.702 802.495C521.517 802.495 495.964 796.186 478.928 788.299L470.726 723.942L473.881 722.996C504.482 773.472 528.142 795.239 556.535 795.239C581.457 795.239 595.338 778.835 595.338 758.644C595.338 730.883 568.523 717.948 540.13 704.067C507.952 687.978 475.458 670.312 475.458 628.038C475.458 579.771 517.416 562.104 562.213 562.104C579.88 562.104 597.231 564.944 612.058 569.676ZM793.406 802.495C724.318 802.495 671.003 750.442 671.003 682.615C671.003 614.788 724.318 562.104 793.406 562.104C862.18 562.104 915.81 614.788 915.81 682.615C915.81 750.442 862.18 802.495 793.406 802.495ZM793.406 795.239C836.942 795.239 854.608 748.234 854.608 682.615C854.608 617.312 837.573 569.36 793.406 569.36C749.24 569.36 731.889 617.312 731.889 682.615C731.889 747.918 749.556 795.239 793.406 795.239ZM1002.24 797.763H945.144V797.132C960.602 773.787 966.596 760.853 966.596 729.305V617.312C965.019 595.229 958.71 584.503 944.198 567.467V566.836H1017.07L1084.58 722.365L1151.15 566.836H1221.5V567.467C1205.41 586.711 1199.1 597.753 1199.1 625.83V731.198C1199.1 761.484 1202.89 774.734 1211.72 797.132V797.763H1130.01V797.132C1139.16 774.734 1142.63 761.799 1142.63 731.198V608.794L1064.71 790.823H1055.88L974.799 607.848L975.745 729.305C976.061 760.222 983.632 773.787 1002.24 797.132V797.763ZM1358.63 703.437L1325.82 609.741L1291.75 703.437H1358.63ZM1295.54 797.132V797.763H1237.49V797.132C1250.74 784.198 1261.78 764.007 1271.25 738.139L1333.4 565.89H1365.26L1428.35 739.716C1437.19 764.323 1446.65 783.567 1457.69 797.132V797.763H1363.68V797.132C1375.04 782.62 1378.82 761.168 1369.36 734.038L1361.16 710.692H1289.23L1283.55 726.151C1270.62 761.799 1278.82 784.829 1295.54 797.132Z" fill="#EAE0D4"/>
<path d="M958.975 196C958.975 196 1057.32 286.737 1054.54 354.791C1052.34 408.828 1000.84 444.433 946.565 438.542C929.951 436.738 913.803 430.706 900.488 420.96C872.828 400.715 862.356 369.355 864.206 336.996C864.206 336.996 885.966 421.063 966.983 410.831C1049.49 400.412 1042.45 323.653 1007.72 306.751C996.292 301.185 984.408 296.435 972.169 292.766C961.284 289.504 949.112 284.682 937.802 288.869C929.351 292 922.898 300.95 925.107 309.388C926.719 315.549 932.401 320.091 938.57 322.384C944.738 324.674 951.446 325.112 958.019 325.804C974.895 327.582 991.679 336.085 996.148 353.01C1002.58 377.374 959.112 399.269 921.148 385.925C883.187 372.582 864.666 333.885 885.037 294.744C905.409 255.602 958.975 196 958.975 196Z" fill="#EAE0D4"/>
</svg>
